<svg version="1.2" xmlns="http://www.w3.org/2000/svg" viewBox="0 0 842 595" width="842" height="595"><defs><clipPath clipPathUnits="userSpaceOnUse" id="cp1"><path d="m0 0.25h841.5v594.75h-841.5"/></clipPath><clipPath clipPathUnits="userSpaceOnUse" id="cp2"><path d="m0 0.25h841.5v594.75h-841.5"/></clipPath><clipPath clipPathUnits="userSpaceOnUse" id="cp3"><path d="m0 0.25h841.5v594.75h-841.5"/></clipPath><clipPath clipPathUnits="userSpaceOnUse" id="cp4"><path d="m0 0.25h841.5v594.75h-841.5"/></clipPath><clipPath clipPathUnits="userSpaceOnUse" id="cp5"><path d="m0 0.25h841.5v594.75h-841.5"/></clipPath><clipPath clipPathUnits="userSpaceOnUse" id="cp6"><path d="m0 0.25h841.5v594.75h-841.5"/></clipPath><clipPath clipPathUnits="userSpaceOnUse" id="cp7"><path d="m0 0.25h841.5v594.75h-841.5"/></clipPath><clipPath clipPathUnits="userSpaceOnUse" id="cp8"><path d="m0 0.25h841.5v594.75h-841.5"/></clipPath><clipPath clipPathUnits="userSpaceOnUse" id="cp9"><path d="m0 0.25h841.5v594.75h-841.5"/></clipPath><clipPath clipPathUnits="userSpaceOnUse" id="cp10"><path d="m0 0.25h841.5v594.75h-841.5"/></clipPath><clipPath clipPathUnits="userSpaceOnUse" id="cp11"><path d="m0 0.25h841.5v594.75h-841.5"/></clipPath><clipPath clipPathUnits="userSpaceOnUse" id="cp12"><path d="m0 0.25h841.5v594.75h-841.5"/></clipPath><clipPath clipPathUnits="userSpaceOnUse" id="cp13"><path d="m0 0.25h841.5v594.75h-841.5"/></clipPath><clipPath clipPathUnits="userSpaceOnUse" id="cp14"><path d="m0 0.25h841.5v594.75h-841.5"/></clipPath><clipPath clipPathUnits="userSpaceOnUse" id="cp15"><path d="m0 0.25h841.5v594.75h-841.5"/></clipPath><clipPath clipPathUnits="userSpaceOnUse" id="cp16"><path d="m0 0.25h841.5v594.75h-841.5"/></clipPath><clipPath clipPathUnits="userSpaceOnUse" id="cp17"><path d="m0 0.25h841.5v594.75h-841.5"/></clipPath><clipPath clipPathUnits="userSpaceOnUse" id="cp18"><path d="m0 0.25h841.5v594.75h-841.5"/></clipPath><clipPath clipPathUnits="userSpaceOnUse" id="cp19"><path d="m0 0.25h841.5v594.75h-841.5"/></clipPath><clipPath clipPathUnits="userSpaceOnUse" id="cp20"><path d="m0 0.25h841.5v594.75h-841.5"/></clipPath><clipPath clipPathUnits="userSpaceOnUse" id="cp21"><path d="m0 0.25h841.5v594.75h-841.5"/></clipPath><clipPath clipPathUnits="userSpaceOnUse" id="cp22"><path d="m0 0.25h841.5v594.75h-841.5"/></clipPath><clipPath clipPathUnits="userSpaceOnUse" id="cp23"><path d="m0 0.25h841.5v594.75h-841.5"/></clipPath><clipPath clipPathUnits="userSpaceOnUse" id="cp24"><path d="m0 0.25h841.5v594.75h-841.5"/></clipPath><clipPath clipPathUnits="userSpaceOnUse" id="cp25"><path d="m0 0.25h841.5v594.75h-841.5"/></clipPath><clipPath clipPathUnits="userSpaceOnUse" id="cp26"><path d="m0 0.25h841.5v594.75h-841.5"/></clipPath><clipPath clipPathUnits="userSpaceOnUse" id="cp27"><path d="m0 0.25h841.5v594.75h-841.5"/></clipPath><clipPath clipPathUnits="userSpaceOnUse" id="cp28"><path d="m0 0.25h841.5v594.75h-841.5"/></clipPath><clipPath clipPathUnits="userSpaceOnUse" id="cp29"><path d="m0 0.25h841.5v594.75h-841.5"/></clipPath><clipPath clipPathUnits="userSpaceOnUse" id="cp30"><path d="m0 0.25h841.5v594.75h-841.5"/></clipPath><clipPath clipPathUnits="userSpaceOnUse" id="cp31"><path d="m0 0.25h841.5v594.75h-841.5"/></clipPath><clipPath clipPathUnits="userSpaceOnUse" id="cp32"><path d="m0 0.25h841.5v594.75h-841.5"/></clipPath><clipPath clipPathUnits="userSpaceOnUse" id="cp33"><path d="m0 0.25h841.5v594.75h-841.5"/></clipPath><clipPath clipPathUnits="userSpaceOnUse" id="cp34"><path d="m0 0.25h841.5v594.75h-841.5"/></clipPath><clipPath clipPathUnits="userSpaceOnUse" id="cp35"><path d="m0 0.25h841.5v594.75h-841.5"/></clipPath><clipPath clipPathUnits="userSpaceOnUse" id="cp36"><path d="m0 0.25h841.5v594.75h-841.5"/></clipPath><clipPath clipPathUnits="userSpaceOnUse" id="cp37"><path d="m0 0.25h841.5v594.75h-841.5"/></clipPath><clipPath clipPathUnits="userSpaceOnUse" id="cp38"><path d="m0 0.25h841.5v594.75h-841.5"/></clipPath><clipPath clipPathUnits="userSpaceOnUse" id="cp39"><path d="m0 0.25h841.5v594.75h-841.5"/></clipPath><clipPath clipPathUnits="userSpaceOnUse" id="cp40"><path d="m0 0.25h841.5v594.75h-841.5"/></clipPath><clipPath clipPathUnits="userSpaceOnUse" id="cp41"><path d="m0 0.25h841.5v594.75h-841.5"/></clipPath><clipPath clipPathUnits="userSpaceOnUse" id="cp42"><path d="m0 0.25h841.5v594.75h-841.5"/></clipPath><clipPath clipPathUnits="userSpaceOnUse" id="cp43"><path d="m0 0.25h841.5v594.75h-841.5"/></clipPath><clipPath clipPathUnits="userSpaceOnUse" id="cp44"><path d="m0 0.25h841.5v594.75h-841.5"/></clipPath><clipPath clipPathUnits="userSpaceOnUse" id="cp45"><path d="m0 0.25h841.5v594.75h-841.5"/></clipPath><clipPath clipPathUnits="userSpaceOnUse" id="cp46"><path d="m0 0.25h841.5v594.75h-841.5"/></clipPath><clipPath clipPathUnits="userSpaceOnUse" id="cp47"><path d="m0 0.25h841.5v594.75h-841.5"/></clipPath><clipPath clipPathUnits="userSpaceOnUse" id="cp48"><path d="m0 0.25h841.5v594.75h-841.5"/></clipPath><clipPath clipPathUnits="userSpaceOnUse" id="cp49"><path d="m0 0.25h841.5v594.75h-841.5"/></clipPath><clipPath clipPathUnits="userSpaceOnUse" id="cp50"><path d="m0 0.25h841.5v594.75h-841.5"/></clipPath><clipPath clipPathUnits="userSpaceOnUse" id="cp51"><path d="m0 0.25h841.5v594.75h-841.5"/></clipPath><clipPath clipPathUnits="userSpaceOnUse" id="cp52"><path d="m0 0.25h841.5v594.75h-841.5"/></clipPath><clipPath clipPathUnits="userSpaceOnUse" id="cp53"><path d="m0 0.25h841.5v594.75h-841.5"/></clipPath><clipPath clipPathUnits="userSpaceOnUse" id="cp54"><path d="m0 0.25h841.5v594.75h-841.5"/></clipPath><clipPath clipPathUnits="userSpaceOnUse" id="cp55"><path d="m0 0.25h841.5v594.75h-841.5"/></clipPath><clipPath clipPathUnits="userSpaceOnUse" id="cp56"><path d="m0 0.25h841.5v594.75h-841.5"/></clipPath><clipPath clipPathUnits="userSpaceOnUse" id="cp57"><path d="m0 0.25h841.5v594.75h-841.5"/></clipPath><clipPath clipPathUnits="userSpaceOnUse" id="cp58"><path d="m0 0.25h841.5v594.75h-841.5"/></clipPath><clipPath clipPathUnits="userSpaceOnUse" id="cp59"><path d="m0 0.25h841.5v594.75h-841.5"/></clipPath><clipPath clipPathUnits="userSpaceOnUse" id="cp60"><path d="m0 0.25h841.5v594.75h-841.5"/></clipPath><clipPath clipPathUnits="userSpaceOnUse" id="cp61"><path d="m0 0.25h841.5v594.75h-841.5"/></clipPath><clipPath clipPathUnits="userSpaceOnUse" id="cp62"><path d="m0 0.25h841.5v594.75h-841.5"/></clipPath><clipPath clipPathUnits="userSpaceOnUse" id="cp63"><path d="m0 0.25h841.5v594.75h-841.5"/></clipPath><clipPath clipPathUnits="userSpaceOnUse" id="cp64"><path d="m0 0.25h841.5v594.75h-841.5"/></clipPath><clipPath clipPathUnits="userSpaceOnUse" id="cp65"><path d="m0 0.25h841.5v594.75h-841.5"/></clipPath><clipPath clipPathUnits="userSpaceOnUse" id="cp66"><path d="m0 0.25h841.5v594.75h-841.5"/></clipPath><clipPath clipPathUnits="userSpaceOnUse" id="cp67"><path d="m0 0.25h841.5v594.75h-841.5"/></clipPath><clipPath clipPathUnits="userSpaceOnUse" id="cp68"><path d="m0 0.25h841.5v594.75h-841.5"/></clipPath><clipPath clipPathUnits="userSpaceOnUse" id="cp69"><path d="m0 0.25h841.5v594.75h-841.5"/></clipPath><clipPath clipPathUnits="userSpaceOnUse" id="cp70"><path d="m0 0.25h841.5v594.75h-841.5"/></clipPath><clipPath clipPathUnits="userSpaceOnUse" id="cp71"><path d="m0 0.25h841.5v594.75h-841.5"/></clipPath><clipPath clipPathUnits="userSpaceOnUse" id="cp72"><path d="m0 0.25h841.5v594.75h-841.5"/></clipPath><clipPath clipPathUnits="userSpaceOnUse" id="cp73"><path d="m0 0.25h841.5v594.75h-841.5"/></clipPath><clipPath clipPathUnits="userSpaceOnUse" id="cp74"><path d="m0 0.25h841.5v594.75h-841.5"/></clipPath><clipPath clipPathUnits="userSpaceOnUse" id="cp75"><path d="m0 0.25h841.5v594.75h-841.5"/></clipPath><clipPath clipPathUnits="userSpaceOnUse" id="cp76"><path d="m0 0.25h841.5v594.75h-841.5"/></clipPath><clipPath clipPathUnits="userSpaceOnUse" id="cp77"><path d="m0 0.25h841.5v594.75h-841.5"/></clipPath><clipPath clipPathUnits="userSpaceOnUse" id="cp78"><path d="m0 0.25h841.5v594.75h-841.5"/></clipPath><clipPath clipPathUnits="userSpaceOnUse" id="cp79"><path d="m0 0.25h841.5v594.75h-841.5"/></clipPath><clipPath clipPathUnits="userSpaceOnUse" id="cp80"><path d="m0 0.25h841.5v594.75h-841.5"/></clipPath><clipPath clipPathUnits="userSpaceOnUse" id="cp81"><path d="m0 0.25h841.5v594.75h-841.5"/></clipPath><clipPath clipPathUnits="userSpaceOnUse" id="cp82"><path d="m0 0.25h841.5v594.75h-841.5"/></clipPath><clipPath clipPathUnits="userSpaceOnUse" id="cp83"><path d="m0 0.25h841.5v594.75h-841.5"/></clipPath><clipPath clipPathUnits="userSpaceOnUse" id="cp84"><path d="m0 0.25h841.5v594.75h-841.5"/></clipPath><clipPath clipPathUnits="userSpaceOnUse" id="cp85"><path d="m0 0.25h841.5v594.75h-841.5"/></clipPath><clipPath clipPathUnits="userSpaceOnUse" id="cp86"><path d="m0 0.25h841.5v594.75h-841.5"/></clipPath><clipPath clipPathUnits="userSpaceOnUse" id="cp87"><path d="m0 0.25h841.5v594.75h-841.5"/></clipPath><clipPath clipPathUnits="userSpaceOnUse" id="cp88"><path d="m0 0.25h841.5v594.75h-841.5"/></clipPath><clipPath clipPathUnits="userSpaceOnUse" id="cp89"><path d="m0 0.25h841.5v594.75h-841.5"/></clipPath><clipPath clipPathUnits="userSpaceOnUse" id="cp90"><path d="m0 0.25h841.5v594.75h-841.5"/></clipPath><clipPath clipPathUnits="userSpaceOnUse" id="cp91"><path d="m0 0.25h841.5v594.75h-841.5"/></clipPath><clipPath clipPathUnits="userSpaceOnUse" id="cp92"><path d="m0 0.25h841.5v594.75h-841.5"/></clipPath><clipPath clipPathUnits="userSpaceOnUse" id="cp93"><path d="m0 0.25h841.5v594.75h-841.5"/></clipPath><clipPath clipPathUnits="userSpaceOnUse" id="cp94"><path d="m0 0.25h841.5v594.75h-841.5"/></clipPath><clipPath clipPathUnits="userSpaceOnUse" id="cp95"><path d="m0 0.25h841.5v594.75h-841.5"/></clipPath><clipPath clipPathUnits="userSpaceOnUse" id="cp96"><path d="m0 0.25h841.5v594.75h-841.5"/></clipPath><clipPath clipPathUnits="userSpaceOnUse" id="cp97"><path d="m0 0.25h841.5v594.75h-841.5"/></clipPath><clipPath clipPathUnits="userSpaceOnUse" id="cp98"><path d="m0 0.25h841.5v594.75h-841.5"/></clipPath><clipPath clipPathUnits="userSpaceOnUse" id="cp99"><path d="m0 0.25h841.5v594.75h-841.5"/></clipPath><clipPath clipPathUnits="userSpaceOnUse" id="cp100"><path d="m0 0.25h841.5v594.75h-841.5"/></clipPath><clipPath clipPathUnits="userSpaceOnUse" id="cp101"><path d="m0 0.25h841.5v594.75h-841.5"/></clipPath><clipPath clipPathUnits="userSpaceOnUse" id="cp102"><path d="m0 0.25h841.5v594.75h-841.5"/></clipPath><clipPath clipPathUnits="userSpaceOnUse" id="cp103"><path d="m0 0.25h841.5v594.75h-841.5"/></clipPath><clipPath clipPathUnits="userSpaceOnUse" id="cp104"><path d="m0 0.25h841.5v594.75h-841.5"/></clipPath><clipPath clipPathUnits="userSpaceOnUse" id="cp105"><path d="m0 0.25h841.5v594.75h-841.5"/></clipPath><clipPath clipPathUnits="userSpaceOnUse" id="cp106"><path d="m0 0.25h841.5v594.75h-841.5"/></clipPath><clipPath clipPathUnits="userSpaceOnUse" id="cp107"><path d="m0 0.25h841.5v594.75h-841.5"/></clipPath><clipPath clipPathUnits="userSpaceOnUse" id="cp108"><path d="m0 0.25h841.5v594.75h-841.5"/></clipPath><clipPath clipPathUnits="userSpaceOnUse" id="cp109"><path d="m0 0.25h841.5v594.75h-841.5"/></clipPath><clipPath clipPathUnits="userSpaceOnUse" id="cp110"><path d="m0 0.25h841.5v594.75h-841.5"/></clipPath><clipPath clipPathUnits="userSpaceOnUse" id="cp111"><path d="m0 0.25h841.5v594.75h-841.5"/></clipPath><clipPath clipPathUnits="userSpaceOnUse" id="cp112"><path d="m0 0.25h841.5v594.75h-841.5"/></clipPath><clipPath clipPathUnits="userSpaceOnUse" id="cp113"><path d="m0 0.25h841.5v594.75h-841.5"/></clipPath><clipPath clipPathUnits="userSpaceOnUse" id="cp114"><path d="m0 0.25h841.5v594.75h-841.5"/></clipPath><clipPath clipPathUnits="userSpaceOnUse" id="cp115"><path d="m0 0.25h841.5v594.75h-841.5"/></clipPath><clipPath clipPathUnits="userSpaceOnUse" id="cp116"><path d="m0 0.25h841.5v594.75h-841.5"/></clipPath><clipPath clipPathUnits="userSpaceOnUse" id="cp117"><path d="m0 0.25h841.5v594.75h-841.5"/></clipPath><clipPath clipPathUnits="userSpaceOnUse" id="cp118"><path d="m0 0.25h841.5v594.75h-841.5"/></clipPath><clipPath clipPathUnits="userSpaceOnUse" id="cp119"><path d="m0 0.25h841.5v594.75h-841.5"/></clipPath><clipPath clipPathUnits="userSpaceOnUse" id="cp120"><path d="m0 0.25h841.5v594.75h-841.5"/></clipPath><clipPath clipPathUnits="userSpaceOnUse" id="cp121"><path d="m0 0.25h841.5v594.75h-841.5"/></clipPath><clipPath clipPathUnits="userSpaceOnUse" id="cp122"><path d="m0 0.25h841.5v594.75h-841.5"/></clipPath><clipPath clipPathUnits="userSpaceOnUse" id="cp123"><path d="m0 0.25h841.5v594.75h-841.5"/></clipPath><clipPath clipPathUnits="userSpaceOnUse" id="cp124"><path d="m0 0.25h841.5v594.75h-841.5"/></clipPath><clipPath clipPathUnits="userSpaceOnUse" id="cp125"><path d="m0 0.25h841.5v594.75h-841.5"/></clipPath><clipPath clipPathUnits="userSpaceOnUse" id="cp126"><path d="m0 0.25h841.5v594.75h-841.5"/></clipPath><clipPath clipPathUnits="userSpaceOnUse" id="cp127"><path d="m0 0.25h841.5v594.75h-841.5"/></clipPath><clipPath clipPathUnits="userSpaceOnUse" id="cp128"><path d="m0 0.25h841.5v594.75h-841.5"/></clipPath><clipPath clipPathUnits="userSpaceOnUse" id="cp129"><path d="m0 0.25h841.5v594.75h-841.5"/></clipPath><clipPath clipPathUnits="userSpaceOnUse" id="cp130"><path d="m0 0.25h841.5v594.75h-841.5"/></clipPath><clipPath clipPathUnits="userSpaceOnUse" id="cp131"><path d="m0 0.25h841.5v594.75h-841.5"/></clipPath><clipPath clipPathUnits="userSpaceOnUse" id="cp132"><path d="m0 0.25h841.5v594.75h-841.5"/></clipPath><clipPath clipPathUnits="userSpaceOnUse" id="cp133"><path d="m0 0.25h841.5v594.75h-841.5"/></clipPath><clipPath clipPathUnits="userSpaceOnUse" id="cp134"><path d="m0 0.25h841.5v594.75h-841.5"/></clipPath><clipPath clipPathUnits="userSpaceOnUse" id="cp135"><path d="m0 0.25h841.5v594.75h-841.5"/></clipPath><clipPath clipPathUnits="userSpaceOnUse" id="cp136"><path d="m0 0.25h841.5v594.75h-841.5"/></clipPath><clipPath clipPathUnits="userSpaceOnUse" id="cp137"><path d="m0 0.25h841.5v594.75h-841.5"/></clipPath><clipPath clipPathUnits="userSpaceOnUse" id="cp138"><path d="m0 0.25h841.5v594.75h-841.5"/></clipPath><clipPath clipPathUnits="userSpaceOnUse" id="cp139"><path d="m0 0.25h841.5v594.75h-841.5"/></clipPath><clipPath clipPathUnits="userSpaceOnUse" id="cp140"><path d="m0 0.25h841.5v594.75h-841.5"/></clipPath><clipPath clipPathUnits="userSpaceOnUse" id="cp141"><path d="m0 0.25h841.5v594.75h-841.5"/></clipPath><clipPath clipPathUnits="userSpaceOnUse" id="cp142"><path d="m0 0.25h841.5v594.75h-841.5"/></clipPath><clipPath clipPathUnits="userSpaceOnUse" id="cp143"><path d="m0 0.25h841.5v594.75h-841.5"/></clipPath><clipPath clipPathUnits="userSpaceOnUse" id="cp144"><path d="m0 0.25h841.5v594.75h-841.5"/></clipPath><clipPath clipPathUnits="userSpaceOnUse" id="cp145"><path d="m0 0.25h841.5v594.75h-841.5"/></clipPath><clipPath clipPathUnits="userSpaceOnUse" id="cp146"><path d="m0 0.25h841.5v594.75h-841.5"/></clipPath><clipPath clipPathUnits="userSpaceOnUse" id="cp147"><path d="m0 0.25h841.5v594.75h-841.5"/></clipPath><clipPath clipPathUnits="userSpaceOnUse" id="cp148"><path d="m0 0.25h841.5v594.75h-841.5"/></clipPath><clipPath clipPathUnits="userSpaceOnUse" id="cp149"><path d="m0 0.25h841.5v594.75h-841.5"/></clipPath><clipPath clipPathUnits="userSpaceOnUse" id="cp150"><path d="m0 0.25h841.5v594.75h-841.5"/></clipPath><clipPath clipPathUnits="userSpaceOnUse" id="cp151"><path d="m0 0.25h841.5v594.75h-841.5"/></clipPath><clipPath clipPathUnits="userSpaceOnUse" id="cp152"><path d="m0 0.25h841.5v594.75h-841.5"/></clipPath><clipPath clipPathUnits="userSpaceOnUse" id="cp153"><path d="m0 0.25h841.5v594.75h-841.5"/></clipPath><clipPath clipPathUnits="userSpaceOnUse" id="cp154"><path d="m0 0.25h841.5v594.75h-841.5"/></clipPath><clipPath clipPathUnits="userSpaceOnUse" id="cp155"><path d="m0 0.25h841.5v594.75h-841.5"/></clipPath><clipPath clipPathUnits="userSpaceOnUse" id="cp156"><path d="m0 0.25h841.5v594.75h-841.5"/></clipPath><clipPath clipPathUnits="userSpaceOnUse" id="cp157"><path d="m0 0.25h841.5v594.75h-841.5"/></clipPath><clipPath clipPathUnits="userSpaceOnUse" id="cp158"><path d="m0 0.25h841.5v594.75h-841.5"/></clipPath><clipPath clipPathUnits="userSpaceOnUse" id="cp159"><path d="m0 0.25h841.5v594.75h-841.5"/></clipPath><clipPath clipPathUnits="userSpaceOnUse" id="cp160"><path d="m0 0.25h841.5v594.75h-841.5"/></clipPath><clipPath clipPathUnits="userSpaceOnUse" id="cp161"><path d="m0 0.25h841.5v594.75h-841.5"/></clipPath><clipPath clipPathUnits="userSpaceOnUse" id="cp162"><path d="m0 0.25h841.5v594.75h-841.5"/></clipPath><clipPath clipPathUnits="userSpaceOnUse" id="cp163"><path d="m0 0.25h841.5v594.75h-841.5"/></clipPath><clipPath clipPathUnits="userSpaceOnUse" id="cp164"><path d="m0 0.25h841.5v594.75h-841.5"/></clipPath><clipPath clipPathUnits="userSpaceOnUse" id="cp165"><path d="m0 0.25h841.5v594.75h-841.5"/></clipPath><clipPath clipPathUnits="userSpaceOnUse" id="cp166"><path d="m0 0.25h841.5v594.75h-841.5"/></clipPath><clipPath clipPathUnits="userSpaceOnUse" id="cp167"><path d="m0 0.25h841.5v594.75h-841.5"/></clipPath><clipPath clipPathUnits="userSpaceOnUse" id="cp168"><path d="m0 0.25h841.5v594.75h-841.5"/></clipPath><clipPath clipPathUnits="userSpaceOnUse" id="cp169"><path d="m0 0.25h841.5v594.75h-841.5"/></clipPath><clipPath clipPathUnits="userSpaceOnUse" id="cp170"><path d="m0 0.25h841.5v594.75h-841.5"/></clipPath><clipPath clipPathUnits="userSpaceOnUse" id="cp171"><path d="m0 0.25h841.5v594.75h-841.5"/></clipPath><clipPath clipPathUnits="userSpaceOnUse" id="cp172"><path d="m0 0.25h841.5v594.75h-841.5"/></clipPath><clipPath clipPathUnits="userSpaceOnUse" id="cp173"><path d="m0 0.25h841.5v594.75h-841.5"/></clipPath><clipPath clipPathUnits="userSpaceOnUse" id="cp174"><path d="m0 0.25h841.5v594.75h-841.5"/></clipPath><clipPath clipPathUnits="userSpaceOnUse" id="cp175"><path d="m0 0.25h841.5v594.75h-841.5"/></clipPath><clipPath clipPathUnits="userSpaceOnUse" id="cp176"><path d="m0 0.25h841.5v594.75h-841.5"/></clipPath><clipPath clipPathUnits="userSpaceOnUse" id="cp177"><path d="m0 0.25h841.5v594.75h-841.5"/></clipPath><clipPath clipPathUnits="userSpaceOnUse" id="cp178"><path d="m0 0.25h841.5v594.75h-841.5"/></clipPath><clipPath clipPathUnits="userSpaceOnUse" id="cp179"><path d="m0 0.25h841.5v594.75h-841.5"/></clipPath><clipPath clipPathUnits="userSpaceOnUse" id="cp180"><path d="m0 0.25h841.5v594.75h-841.5"/></clipPath><clipPath clipPathUnits="userSpaceOnUse" id="cp181"><path d="m0 0.25h841.5v594.75h-841.5"/></clipPath><clipPath clipPathUnits="userSpaceOnUse" id="cp182"><path d="m0 0.25h841.5v594.75h-841.5"/></clipPath><clipPath clipPathUnits="userSpaceOnUse" id="cp183"><path d="m0 0.25h841.5v594.75h-841.5"/></clipPath><clipPath clipPathUnits="userSpaceOnUse" id="cp184"><path d="m0 0.25h841.5v594.75h-841.5"/></clipPath><clipPath clipPathUnits="userSpaceOnUse" id="cp185"><path d="m0 0.25h841.5v594.75h-841.5"/></clipPath><clipPath clipPathUnits="userSpaceOnUse" id="cp186"><path d="m0 0.25h841.5v594.75h-841.5"/></clipPath></defs><style>tspan{white-space:pre}.a{fill:#b3b3b3}.b{fill:none;stroke:#000;stroke-width:.8}.c{fill:#fff}.d{fill:none;stroke:#fff;stroke-linecap:round;stroke-linejoin:round;stroke-width:.8}.e{fill:none;stroke:#000;stroke-linecap:round;stroke-linejoin:round;stroke-width:.8}.f{fill:#7f7f7f}.g{fill:#404040}.h{fill:#99ca46}.i{fill:#86a93f}.j{fill:#2d1c15}.k{fill:#6e5340}.l{fill:none;stroke:#020100;stroke-width:.8}.m{fill:#bcbec0}.n{fill:#ffe8cf}.o{fill:#e8b174}.p{fill:#7f5a2d}.q{font-size: 10px;fill: #000000;font-family: "Calibri"}.r{fill:#f26524}.s{fill:#f26524;stroke:#000;stroke-width:.8}.t{font-size: 12px;fill: #000000;font-family: "Calibri"}</style><path class="a" d="m2.2 2.4h837.5l-17 17h-803.5z"/><path class="b" d="m19.2 19.4h803.5m-820.5-17h837.5"/><g clip-path="url(#cp1)"><path class="a" d="m839.7 2.4v591l-17-17.1v-556.9z"/></g><g clip-path="url(#cp2)"><path class="b" d="m822.7 19.4v556.9m17-573.9v591"/></g><path class="a" d="m839.7 593.4h-837.5l17-17.1h803.5z"/><path class="b" d="m822.7 576.3h-803.5m820.5 17.1h-837.5"/><g clip-path="url(#cp3)"><path class="a" d="m2.2 593.4v-591l17 17v556.9z"/></g><g clip-path="url(#cp4)"><path class="b" d="m19.2 576.3v-556.9m-17 574v-591"/></g><path class="c" d="m90.7 576.2h113.4v17.3h-113.4z"/><path class="d" d="m90.7 576.2h113.4v17.3h-113.4z"/><path fill-rule="evenodd" class="c" d="m90.7 593.4v-17.1h5.7v17.1zm107.7 0v-17.1h5.7v17.1z"/><path fill-rule="evenodd" class="e" d="m90.7 593.4v-17.1h5.7v5.7m0 5.7v5.7h-5.7zm102.1-5.7v-5.7h5.6v17zm5.7 11.4h-5.7v-5.7z"/><path fill-rule="evenodd" class="c" d="m96.4 582h2.2v5.7h-2.2zm102 0h-2.2v5.7h2.2z"/><path fill-rule="evenodd" class="e" d="m96.4 582h2.2v5.7h-2.2m102-5.7h-2.2v5.7h2.2z"/><path class="e" d="m90.7 593.4v-17.1m113.4 17.1v-17.1"/><path class="e" d="m96.4 576.3c0-56.3 45.7-102 102-102"/><g clip-path="url(#cp5)"><path class="c" d="m192.8 474.3h5.6v102h-5.6z"/></g><g clip-path="url(#cp6)"><path class="e" d="m192.8 474.3h5.6v102h-5.6z"/></g><g clip-path="url(#cp7)"></g><g clip-path="url(#cp8)"></g><g clip-path="url(#cp9)"></g><g clip-path="url(#cp10)"></g><g clip-path="url(#cp11)"><path fill-rule="evenodd" class="f" d="m773.3 127c0-0.7 0.8-1.3 1.6-1.2 0.8 0.1 1.3 0.8 1.3 1.6-0.1 0.8-0.9 1.3-1.7 1.2-0.8-0.1-1.3-0.8-1.2-1.6zm-13.6 27.3c0.5 0.7 0.4 1.5-0.2 2-0.7 0.4-1.5 0.3-2-0.3-0.5-0.7-0.4-1.6 0.2-2 0.6-0.5 1.5-0.3 2 0.3z"/></g><g clip-path="url(#cp12)"><path fill-rule="evenodd" class="g" d="m759 154.3c0-0.1 0.9 0.7 0 1.4-0.9 0.6-1.4-0.4-1.4-0.4l-2-2.6 1.4-1.1zm15.1-26.2c0 0 1.2 0.4 1.3-0.7 0.1-1.1-1.1-1-1.1-1l-3.3-0.5-0.1 1.7z"/></g><path class="h" d="m765.5 113.4c0.8 0.5 2.4 1.9 3.9 4.1 2.5 3.5 3.6 8.7 3.4 10-0.1 0.9-1 4.7-1.1 4.8-3.2 10.1-8.8 16.1-9.9 17.3-1 1.2-2.4 2.9-3.7 3.6-1.6 1.1-7.9 2.8-12.6 1.8-4.6-1.3-8.7-5.1-10.2-6.9-0.7-0.9-10.6-13.3-11.5-14.7-0.8-1.3-2.2-6 2.7-15.3 1.5-2.8 5.3-9.6 11.7-10.2 1.3 0 13.8 0.7 17.7 1.5 4 0.3 6.9 2.2 9.6 4z"/><g clip-path="url(#cp13)"><path class="b" d="m765.5 113.4c0.8 0.5 2.4 1.9 3.9 4.1 2.5 3.5 3.6 8.7 3.4 10-0.1 0.9-1 4.7-1.1 4.8-3.2 10.1-8.8 16.1-9.9 17.3-1 1.2-2.4 2.9-3.7 3.6-1.6 1.1-7.9 2.8-12.6 1.8-4.6-1.3-8.7-5.1-10.2-6.9-0.7-0.9-10.6-13.3-11.5-14.7-0.8-1.3-2.2-6 2.7-15.3 1.5-2.8 5.3-9.6 11.7-10.2 1.3 0 13.8 0.7 17.7 1.5 4 0.3 6.9 2.2 9.6 4z"/></g><g clip-path="url(#cp14)"><path class="i" d="m764.3 119.1c2.3 1.8 3 4.9 3 5.5-3.5-2.4-9.8-5.8-14.8-3.9-10.7 4-11.1 14.5-10.4 17.3 1.7 6.6 7.4 10.1 11.3 11.6q-0.4 0.1-0.7 0.3c-1.7 0.8-5.1 0.1-6.1-0.4-2.3-1-4.6-2.5-8.8-6.8-5.1-5.1-5.8-7.5-6.7-9.5-0.7-1.6 0-6.5 2.7-11.1 3.2-5.6 6.9-7.7 7.6-8.1 1.1-0.3 4.8-1.3 12.1 0.7 7.3 1.9 8.2 2.6 10.8 4.4z"/></g><g clip-path="url(#cp15)"><path fill-rule="evenodd" class="f" d="m767.7 200.9c-0.5-0.7-0.4-1.7 0.3-2.2 0.7-0.6 1.7-0.5 2.2 0.2 0.5 0.7 0.4 1.6-0.3 2.2-0.7 0.5-1.7 0.4-2.2-0.2zm8.8 33c-0.1 0.9 0.5 1.6 1.4 1.8 0.9 0.1 1.7-0.5 1.8-1.3 0.1-0.9-0.5-1.7-1.3-1.8-0.9-0.1-1.7 0.5-1.9 1.3z"/></g><g clip-path="url(#cp16)"><path fill-rule="evenodd" class="g" d="m777.7 233.1c0 0 1.4 0 1.2 1.2-0.2 1.1-1.4 0.7-1.4 0.7l-3.6-0.5 0.2-1.8zm-8.6-32.2c0 0 1.2-0.6 0.4-1.5-0.7-0.9-1.6 0-1.6 0l-2.8 2.2 1.1 1.5z"/></g><g clip-path="url(#cp17)"><path class="h" d="m751 196.2c1-0.2 3.4-0.3 6.3 0.2 4.7 0.9 9.5 4.1 10.4 5.1 0.7 0.9 2.8 4.5 2.9 4.6 5.3 10.4 5.7 19.5 5.7 21.3 0.2 1.6 0.4 4 0 5.6-0.5 2.1-4 8.3-8.5 11.2-4.5 2.6-10.7 2.8-13.3 2.6-1.2-0.2-18.6-2.1-20.3-2.6-1.6-0.3-6.4-2.8-9.8-13.9-1-3.4-3.4-11.6 1.1-17.1 1.1-0.9 11.3-10.1 14.9-12.5 3.4-2.9 7.1-3.7 10.6-4.5z"/></g><g clip-path="url(#cp18)"><path class="b" d="m751 196.2c1-0.2 3.4-0.3 6.3 0.2 4.7 0.9 9.5 4.1 10.4 5.1 0.7 0.9 2.8 4.5 2.9 4.6 5.3 10.4 5.7 19.5 5.7 21.3 0.2 1.6 0.4 4 0 5.6-0.5 2.1-4 8.3-8.5 11.2-4.5 2.6-10.7 2.8-13.3 2.6-1.2-0.2-18.6-2.1-20.3-2.6-1.6-0.3-6.4-2.8-9.8-13.9-1-3.4-3.4-11.6 1.1-17.1 1.1-0.9 11.3-10.1 14.9-12.5 3.4-2.9 7.1-3.7 10.6-4.5z"/></g><g clip-path="url(#cp19)"><path class="i" d="m754.6 201.7c3.1-0.4 6.1 1.5 6.6 1.9-4.7 0.9-12.2 3.1-14.6 8.5-5.2 11.4 2.7 19.8 5.4 21.5 6.5 3.8 13.5 2.1 17.8 0.3q-0.2 0.4-0.3 0.7c-0.7 2-3.9 4.1-5.1 4.5-2.5 1-5.5 1.6-12.1 1.6-7.9-0.1-10.3-1.4-12.6-2.3-1.8-0.7-5.1-5-6.6-10.7-1.8-6.8-0.6-11.3-0.3-12.2 0.6-1.1 2.7-4.7 9.9-8.9 7.2-4.1 8.5-4.4 11.9-4.9z"/></g><g clip-path="url(#cp20)"></g><g clip-path="url(#cp21)"></g><g clip-path="url(#cp22)"></g><g clip-path="url(#cp23)"></g><g clip-path="url(#cp24)"></g><g clip-path="url(#cp25)"></g><g clip-path="url(#cp26)"></g><g clip-path="url(#cp27)"></g><g clip-path="url(#cp28)"></g><g clip-path="url(#cp29)"></g><g clip-path="url(#cp30)"></g><g clip-path="url(#cp31)"></g><g clip-path="url(#cp32)"></g><g clip-path="url(#cp33)"></g><g clip-path="url(#cp34)"></g><g clip-path="url(#cp35)"></g><g clip-path="url(#cp36)"></g><g clip-path="url(#cp37)"></g><g clip-path="url(#cp38)"></g><g clip-path="url(#cp39)"></g><g clip-path="url(#cp40)"></g><g clip-path="url(#cp41)"></g><g clip-path="url(#cp42)"></g><g clip-path="url(#cp43)"></g><g clip-path="url(#cp44)"></g><g clip-path="url(#cp45)"></g><g clip-path="url(#cp46)"></g><g clip-path="url(#cp47)"></g><g clip-path="url(#cp48)"></g><g clip-path="url(#cp49)"></g><g clip-path="url(#cp50)"></g><g clip-path="url(#cp51)"></g><g clip-path="url(#cp52)"></g><g clip-path="url(#cp53)"></g><g clip-path="url(#cp54)"></g><g clip-path="url(#cp55)"></g><g clip-path="url(#cp56)"></g><g clip-path="url(#cp57)"></g><g clip-path="url(#cp58)"></g><g clip-path="url(#cp59)"></g><g clip-path="url(#cp60)"></g><g clip-path="url(#cp61)"></g><g clip-path="url(#cp62)"></g><path class="j" d="m779.9 394.3l-0.9-2.7v-7.7c0-0.6 0.5-0.9 1-0.9h33.5l2.3 2.6z"/><path class="b" d="m779.9 394.3l-0.9-2.7v-7.7c0-0.6 0.5-0.9 1-0.9h33.5l2.3 2.6"/><path class="k" d="m815.8 385.6c0.6 0 1.1 0.5 1.1 1v7.7c0 0.6-0.5 1.1-1.1 1.1h-34.9c-0.6 0-1-0.5-1-1.1v-7.7c0-0.6 0.4-1 1-1z"/><path class="l" d="m815.8 385.6c0.6 0 1.1 0.5 1.1 1v7.7c0 0.6-0.5 1.1-1.1 1.1h-34.9c-0.6 0-1-0.5-1-1.1v-7.7c0-0.6 0.4-1 1-1z"/><path class="j" d="m815.3 282.9l-2.3 2.9h-33.5c-0.6 0-1-0.2-1-0.8v-7.7l0.9-3.1z"/><path class="b" d="m815.3 282.9l-2.3 2.9h-33.5c-0.6 0-1-0.2-1-0.8v-7.7l0.9-3.1"/><path class="k" d="m780.4 282.9c-0.6 0-1.1-0.4-1-0.9v-7.8c-0.1-0.6 0.4-1.1 1-1.1h34.9c0.6 0 1 0.5 1 1v7.8c0 0.6-0.4 1-1 1z"/><path class="l" d="m780.4 282.9c-0.6 0-1.1-0.4-1-0.9v-7.8c-0.1-0.6 0.4-1.1 1-1.1h34.9c0.6 0 1 0.5 1 1v7.8c0 0.6-0.4 1-1 1z"/><path class="j" d="m814.4 391.1l-6.3-5.6c-0.4-0.4-0.8-1.2-0.8-1.8v-97.5c0-0.5 0.4-1.3 0.8-1.7l6.3-5.9z"/><path class="b" d="m814.4 391.1l-6.3-5.6c-0.4-0.4-0.8-1.2-0.8-1.8v-97.5c0-0.5 0.4-1.3 0.8-1.7l6.3-5.9"/><path class="k" d="m814.4 391.1c-0.5 0-0.8-0.5-0.8-1v-110.5c0-0.6 0.3-1 0.8-1h7.5c0.4 0 0.8 0.4 0.8 1v110.5c0 0.5-0.4 1-0.8 1z"/><path class="l" d="m814.4 391.1c-0.5 0-0.8-0.5-0.8-1v-110.5c0-0.6 0.3-1 0.8-1h7.5c0.4 0 0.8 0.4 0.8 1v110.5c0 0.5-0.4 1-0.8 1z"/><path class="k" d="m810.9 381.8c0 0.8-0.9 1.4-2 1.4h-27.4c-1 0-1.9-0.6-1.9-1.4v-29.7c0-0.8 0.9-1.5 1.9-1.5h27.4c1.1 0 2 0.7 2 1.5z"/><path class="l" d="m810.9 381.8c0 0.8-0.9 1.4-2 1.4h-27.4c-1 0-1.9-0.6-1.9-1.4v-29.7c0-0.8 0.9-1.5 1.9-1.5h27.4c1.1 0 2 0.7 2 1.5z"/><path class="k" d="m810.9 349.2c0 0.8-0.9 1.4-2 1.4h-27.4c-1 0-1.9-0.6-1.9-1.4v-29.7c0-0.8 0.9-1.5 1.9-1.5h27.4c1.1 0 2 0.7 2 1.5z"/><path class="l" d="m810.9 349.2c0 0.8-0.9 1.4-2 1.4h-27.4c-1 0-1.9-0.6-1.9-1.4v-29.7c0-0.8 0.9-1.5 1.9-1.5h27.4c1.1 0 2 0.7 2 1.5z"/><path class="k" d="m810.9 316.6c0 0.8-0.9 1.4-2 1.4h-27.4c-1 0-1.9-0.6-1.9-1.4v-29.7c0-0.8 0.9-1.5 1.9-1.5h27.4c1.1 0 2 0.7 2 1.5z"/><path class="l" d="m810.9 316.6c0 0.8-0.9 1.4-2 1.4h-27.4c-1 0-1.9-0.6-1.9-1.4v-29.7c0-0.8 0.9-1.5 1.9-1.5h27.4c1.1 0 2 0.7 2 1.5z"/><g clip-path="url(#cp63)"></g><g clip-path="url(#cp64)"></g><g clip-path="url(#cp65)"></g><g clip-path="url(#cp66)"></g><g clip-path="url(#cp67)"></g><g clip-path="url(#cp68)"></g><g clip-path="url(#cp69)"></g><g clip-path="url(#cp70)"></g><g clip-path="url(#cp71)"></g><g clip-path="url(#cp72)"></g><g clip-path="url(#cp73)"></g><g clip-path="url(#cp74)"></g><g clip-path="url(#cp75)"></g><g clip-path="url(#cp76)"></g><g clip-path="url(#cp77)"></g><g clip-path="url(#cp78)"></g><g clip-path="url(#cp79)"></g><path class="m" d="m272.6 503.6c0-0.4 0.3-0.8 0.8-0.8h39.3c0.4 0 0.8 0.4 0.8 0.8v71.9c0 0.5-0.4 0.8-0.8 0.8h-39.3c-0.5 0-0.8-0.3-0.8-0.8z"/><path class="b" d="m272.6 503.6c0-0.4 0.3-0.8 0.8-0.8h39.3c0.4 0 0.8 0.4 0.8 0.8v71.9c0 0.5-0.4 0.8-0.8 0.8h-39.3c-0.5 0-0.8-0.3-0.8-0.8z"/><path class="n" d="m294.8 531.2c-3.4 0-6.1-2.8-6.1-6.1 0-3.4 2.7-6.2 6.1-6.2 3.4 0 6.1 2.8 6.1 6.2 0 3.3-2.7 6.1-6.1 6.1z"/><path  d="m294.8 529.3c-2.4 0-4.3-1.9-4.3-4.2 0-2.4 1.9-4.3 4.3-4.3 2.3 0 4.2 1.9 4.2 4.3 0 2.3-1.9 4.2-4.2 4.2z"/><g clip-path="url(#cp80)"><path fill-rule="evenodd" class="o" d="m348.7 525.1c0 0 0.4 4.2 0.3 9.4 0 5.2-0.5 8.2-0.5 8.2-0.6 4-4.5 2.8-4.5 2.8-0.4-0.1-3.2-0.7-3.7-0.9-1.3-0.5-2.2-1.4-2.7-2.6-0.3-0.8-0.6-1.7-0.5-2.6q0-0.3 0-0.6l0.1-10.2q0-0.2 0-0.5c0.1-0.9 0.3-1.8 0.7-2.7 0.5-1.1 1.4-2 2.7-2.4 0.6-0.2 3.4-0.8 3.8-0.8 0 0 3.9-1.1 4.3 2.9zm-36.9 7.9c-0.2 14.2 9.2 12.3 9.2 12.3l9.4-1.2c5.3-0.5 5.4-5.2 5.4-5.2l0.1-9.6c-0.8-6-6-6.4-6-6.4-1.5-0.2-9.3-1.4-9.3-1.4-5.1-0.7-7.1 2.9-7.1 2.9-1.6 2.6-1.7 8.6-1.7 8.6z"/></g><g clip-path="url(#cp81)"><path fill-rule="evenodd" class="e" d="m348.7 525.1c0 0 0.4 4.2 0.3 9.4 0 5.2-0.5 8.2-0.5 8.2-0.6 4-4.5 2.8-4.5 2.8-0.4-0.1-3.2-0.7-3.7-0.9-1.3-0.5-2.2-1.4-2.7-2.6-0.3-0.8-0.6-1.7-0.5-2.6q0-0.3 0-0.6l0.1-10.2q0-0.2 0-0.5c0.1-0.9 0.3-1.8 0.7-2.7 0.5-1.1 1.4-2 2.7-2.4 0.6-0.2 3.4-0.8 3.8-0.8 0 0 3.9-1.1 4.3 2.9zm-36.9 7.9c-0.2 14.2 9.2 12.3 9.2 12.3l9.4-1.2c5.3-0.5 5.4-5.2 5.4-5.2l0.1-9.6c-0.8-6-6-6.4-6-6.4-1.5-0.2-9.3-1.4-9.3-1.4-5.1-0.7-7.1 2.9-7.1 2.9-1.6 2.6-1.7 8.6-1.7 8.6z"/></g><g clip-path="url(#cp82)"><path fill-rule="evenodd" class="p" d="m328 544.4v1.3l-3.1 0.4v-1.4zm9.2-12.1l-0.1 3.1-1.3-0.1 0.1-3.1zm-11.9-9.9v-1.4l3.1 0.5v1.4zm0-1.4l-3.4-0.5c-1.7-0.4-3-1.6-2.8-3.1 0.2-1.5 1.7-2.6 3.4-2.4l10.1 3c3.1 1 2.9 2.4 2.8 3-0.3 1.5-1.7 1.2-3.6 1l-3.4-0.5-3.1-0.5zm-6.7 28.6c-0.1-1.5 1.2-2.6 2.9-2.9l10-1.3c1.8-0.1 3.2-0.3 3.5 1.2 0.1 0.6 0.3 2-2.9 2.9l-10.2 2.7c-1.7 0.1-3.2-1.1-3.3-2.6zm25.9-27.3c0.7-0.1 3.9-0.6 4.2 3 0 0 0.4 4.1 0.3 9.4 0 5.2-0.5 8.1-0.5 8.1-0.5 3.6-3.7 3-4.4 2.8 1-0.2 2-0.9 2.3-2.8 0 0 0.5-3 0.6-8.2 0-5.2-0.3-9.4-0.3-9.4-0.2-1.9-1.2-2.6-2.2-2.9z"/></g><g clip-path="url(#cp83)"><path fill-rule="evenodd" class="e" d="m328 544.4v1.3l-3.1 0.4v-1.4zm9.2-12.1l-0.1 3.1-1.3-0.1 0.1-3.1zm-11.9-9.9v-1.4l3.1 0.5v1.4zm0-1.4l-3.4-0.5c-1.7-0.4-3-1.6-2.8-3.1 0.2-1.5 1.7-2.6 3.4-2.4l10.1 3c3.1 1 2.9 2.4 2.8 3-0.3 1.5-1.7 1.2-3.6 1l-3.4-0.5-3.1-0.5zm-6.7 28.6c-0.1-1.5 1.2-2.6 2.9-2.9l10-1.3c1.8-0.1 3.2-0.3 3.5 1.2 0.1 0.6 0.3 2-2.9 2.9l-10.2 2.7c-1.7 0.1-3.2-1.1-3.3-2.6zm25.9-27.3c0.7-0.1 3.9-0.6 4.2 3 0 0 0.4 4.1 0.3 9.4 0 5.2-0.5 8.1-0.5 8.1-0.5 3.6-3.7 3-4.4 2.8 1-0.2 2-0.9 2.3-2.8 0 0 0.5-3 0.6-8.2 0-5.2-0.3-9.4-0.3-9.4-0.2-1.9-1.2-2.6-2.2-2.9z"/></g><g clip-path="url(#cp84)"><path fill-rule="evenodd" class="o" d="m348.7 525.1c0 0 0.4 4.2 0.3 9.4 0 5.2-0.5 8.2-0.5 8.2-0.6 4-4.5 2.8-4.5 2.8-0.4-0.1-3.2-0.7-3.7-0.9-1.3-0.5-2.2-1.4-2.7-2.6-0.3-0.8-0.6-1.7-0.5-2.6q0-0.3 0-0.6l0.1-10.2q0-0.2 0-0.5c0.1-0.9 0.3-1.8 0.7-2.7 0.5-1.1 1.4-2 2.7-2.4 0.6-0.2 3.4-0.8 3.8-0.8 0 0 3.9-1.1 4.3 2.9zm-36.9 7.9c-0.2 14.2 9.2 12.3 9.2 12.3l9.4-1.2c5.3-0.5 5.4-5.2 5.4-5.2l0.1-9.6c-0.8-6-6-6.4-6-6.4-1.5-0.2-9.3-1.4-9.3-1.4-5.1-0.7-7.1 2.9-7.1 2.9-1.6 2.6-1.7 8.6-1.7 8.6z"/></g><g clip-path="url(#cp85)"><path fill-rule="evenodd" class="e" d="m348.7 525.1c0 0 0.4 4.2 0.3 9.4 0 5.2-0.5 8.2-0.5 8.2-0.6 4-4.5 2.8-4.5 2.8-0.4-0.1-3.2-0.7-3.7-0.9-1.3-0.5-2.2-1.4-2.7-2.6-0.3-0.8-0.6-1.7-0.5-2.6q0-0.3 0-0.6l0.1-10.2q0-0.2 0-0.5c0.1-0.9 0.3-1.8 0.7-2.7 0.5-1.1 1.4-2 2.7-2.4 0.6-0.2 3.4-0.8 3.8-0.8 0 0 3.9-1.1 4.3 2.9zm-36.9 7.9c-0.2 14.2 9.2 12.3 9.2 12.3l9.4-1.2c5.3-0.5 5.4-5.2 5.4-5.2l0.1-9.6c-0.8-6-6-6.4-6-6.4-1.5-0.2-9.3-1.4-9.3-1.4-5.1-0.7-7.1 2.9-7.1 2.9-1.6 2.6-1.7 8.6-1.7 8.6z"/></g><g clip-path="url(#cp86)"><path fill-rule="evenodd" class="p" d="m328 544.4v1.3l-3.1 0.4v-1.4zm9.2-12.1l-0.1 3.1-1.3-0.1 0.1-3.1zm-11.9-9.9v-1.4l3.1 0.5v1.4zm0-1.4l-3.4-0.5c-1.7-0.4-3-1.6-2.8-3.1 0.2-1.5 1.7-2.6 3.4-2.4l10.1 3c3.1 1 2.9 2.4 2.8 3-0.3 1.5-1.7 1.2-3.6 1l-3.4-0.5-3.1-0.5zm-6.7 28.6c-0.1-1.5 1.2-2.6 2.9-2.9l10-1.3c1.8-0.1 3.2-0.3 3.5 1.2 0.1 0.6 0.3 2-2.9 2.9l-10.2 2.7c-1.7 0.1-3.2-1.1-3.3-2.6zm25.9-27.3c0.7-0.1 3.9-0.6 4.2 3 0 0 0.4 4.1 0.3 9.4 0 5.2-0.5 8.1-0.5 8.1-0.5 3.6-3.7 3-4.4 2.8 1-0.2 2-0.9 2.3-2.8 0 0 0.5-3 0.6-8.2 0-5.2-0.3-9.4-0.3-9.4-0.2-1.9-1.2-2.6-2.2-2.9z"/></g><g clip-path="url(#cp87)"><path fill-rule="evenodd" class="e" d="m328 544.4v1.3l-3.1 0.4v-1.4zm9.2-12.1l-0.1 3.1-1.3-0.1 0.1-3.1zm-11.9-9.9v-1.4l3.1 0.5v1.4zm0-1.4l-3.4-0.5c-1.7-0.4-3-1.6-2.8-3.1 0.2-1.5 1.7-2.6 3.4-2.4l10.1 3c3.1 1 2.9 2.4 2.8 3-0.3 1.5-1.7 1.2-3.6 1l-3.4-0.5-3.1-0.5zm-6.7 28.6c-0.1-1.5 1.2-2.6 2.9-2.9l10-1.3c1.8-0.1 3.2-0.3 3.5 1.2 0.1 0.6 0.3 2-2.9 2.9l-10.2 2.7c-1.7 0.1-3.2-1.1-3.3-2.6zm25.9-27.3c0.7-0.1 3.9-0.6 4.2 3 0 0 0.4 4.1 0.3 9.4 0 5.2-0.5 8.1-0.5 8.1-0.5 3.6-3.7 3-4.4 2.8 1-0.2 2-0.9 2.3-2.8 0 0 0.5-3 0.6-8.2 0-5.2-0.3-9.4-0.3-9.4-0.2-1.9-1.2-2.6-2.2-2.9z"/></g><path class="m" d="m379.6 373.1c0-0.2 0.3-0.4 0.6-0.4h33.3c0.3 0 0.6 0.2 0.6 0.4v38.9c0 0.2-0.3 0.4-0.6 0.4h-33.3c-0.3 0-0.6-0.2-0.6-0.4z"/><path class="b" d="m379.6 373.1c0-0.2 0.3-0.4 0.6-0.4h33.3c0.3 0 0.6 0.2 0.6 0.4v38.9c0 0.2-0.3 0.4-0.6 0.4h-33.3c-0.3 0-0.6-0.2-0.6-0.4z"/><path class="n" d="m401.8 401.1c-3.4 0-6.1-2.8-6.1-6.2 0-3.4 2.7-6.1 6.1-6.1 3.4 0 6.1 2.7 6.1 6.1 0 3.4-2.7 6.2-6.1 6.2z"/><path  d="m401.8 399.2c-2.4 0-4.3-1.9-4.3-4.3 0-2.3 1.9-4.2 4.3-4.2 2.3 0 4.2 1.9 4.2 4.2 0 2.4-1.9 4.3-4.2 4.3z"/><text style="transform:matrix(0,-1,1,0,391.28,399.081)" ><tspan x="0" y="0" class="q" dx="0" >а</tspan><tspan  y="0" class="q" dx="0" >т</tspan><tspan  y="0" class="q">с
</tspan></text><path class="m" d="m481.9 378.6c0-0.2 0.3-0.4 0.7-0.4h33.2c0.4 0 0.7 0.2 0.7 0.4v38.9c0 0.2-0.3 0.4-0.7 0.4h-33.2c-0.4 0-0.7-0.2-0.7-0.4z"/><path class="b" d="m481.9 378.6c0-0.2 0.3-0.4 0.7-0.4h33.2c0.4 0 0.7 0.2 0.7 0.4v38.9c0 0.2-0.3 0.4-0.7 0.4h-33.2c-0.4 0-0.7-0.2-0.7-0.4z"/><path class="n" d="m504.1 406.5c-3.4 0-6.1-2.7-6.1-6.1 0-3.4 2.7-6.1 6.1-6.1 3.4 0 6.1 2.7 6.1 6.1 0 3.4-2.7 6.1-6.1 6.1z"/><path  d="m504.1 404.6c-2.3 0-4.2-1.9-4.2-4.2 0-2.3 1.9-4.3 4.2-4.3 2.4 0 4.3 2 4.3 4.3 0 2.3-1.9 4.2-4.3 4.2z"/><text style="transform:matrix(0,-1,1,0,495.896,404.562)" ><tspan x="0" y="0" class="q" dx="0" >а</tspan><tspan  y="0" class="q" dx="0" >т</tspan><tspan  y="0" class="q">с
</tspan></text><path class="m" d="m379.6 426.7c0-0.2 0.3-0.4 0.6-0.4h33.3c0.3 0 0.6 0.2 0.6 0.4v38.9c0 0.2-0.3 0.4-0.6 0.4h-33.3c-0.3 0-0.6-0.2-0.6-0.4z"/><path class="b" d="m379.6 426.7c0-0.2 0.3-0.4 0.6-0.4h33.3c0.3 0 0.6 0.2 0.6 0.4v38.9c0 0.2-0.3 0.4-0.6 0.4h-33.3c-0.3 0-0.6-0.2-0.6-0.4z"/><path class="n" d="m401.8 454.6c-3.4 0-6.1-2.7-6.1-6.1 0-3.4 2.7-6.1 6.1-6.1 3.4 0 6.1 2.7 6.1 6.1 0 3.4-2.7 6.1-6.1 6.1z"/><path  d="m401.8 452.8c-2.4 0-4.3-1.9-4.3-4.3 0-2.3 1.9-4.2 4.3-4.2 2.3 0 4.2 1.9 4.2 4.2 0 2.4-1.9 4.3-4.2 4.3z"/><text style="transform:matrix(0,-1,1,0,391.368,452.481)" ><tspan x="0" y="0" class="q" dx="0" >а</tspan><tspan  y="0" class="q" dx="0" >т</tspan><tspan  y="0" class="q">с
</tspan></text><path class="m" d="m481.9 426.4c0-0.2 0.3-0.4 0.7-0.4h33.2c0.4 0 0.7 0.2 0.7 0.4v38.9c0 0.3-0.3 0.5-0.7 0.5h-33.2c-0.4 0-0.7-0.2-0.7-0.5z"/><path class="b" d="m481.9 426.4c0-0.2 0.3-0.4 0.7-0.4h33.2c0.4 0 0.7 0.2 0.7 0.4v38.9c0 0.3-0.3 0.5-0.7 0.5h-33.2c-0.4 0-0.7-0.2-0.7-0.5z"/><path class="n" d="m504.1 454.4c-3.4 0-6.1-2.8-6.1-6.2 0-3.3 2.7-6.1 6.1-6.1 3.4 0 6.1 2.8 6.1 6.1 0 3.4-2.7 6.2-6.1 6.2z"/><path  d="m504.1 452.5c-2.3 0-4.2-1.9-4.2-4.3 0-2.3 1.9-4.2 4.2-4.2 2.4 0 4.3 1.9 4.3 4.2 0 2.4-1.9 4.3-4.3 4.3z"/><text style="transform:matrix(0,-1,1,0,496.78,452.761)" ><tspan x="0" y="0" class="q" dx="0" >а</tspan><tspan  y="0" class="q" dx="0" >т</tspan><tspan  y="0" class="q">с
</tspan></text><path class="m" d="m663 350.5c0-0.2 0.3-0.4 0.7-0.4h33.2c0.4 0 0.7 0.2 0.7 0.4v38.9c0 0.3-0.3 0.5-0.7 0.5h-33.2c-0.4 0-0.7-0.2-0.7-0.5z"/><path class="b" d="m663 350.5c0-0.2 0.3-0.4 0.7-0.4h33.2c0.4 0 0.7 0.2 0.7 0.4v38.9c0 0.3-0.3 0.5-0.7 0.5h-33.2c-0.4 0-0.7-0.2-0.7-0.5z"/><path class="n" d="m685.3 378.4c-3.4 0-6.2-2.7-6.2-6.1 0-3.4 2.8-6.1 6.2-6.1 3.3 0 6.1 2.7 6.1 6.1 0 3.4-2.8 6.1-6.1 6.1z"/><path  d="m685.3 376.6c-2.4 0-4.3-1.9-4.3-4.3 0-2.3 1.9-4.2 4.3-4.2 2.3 0 4.2 1.9 4.2 4.2 0 2.4-1.9 4.3-4.2 4.3z"/><text style="transform:matrix(1,0,0,1,674.586,362.243)" ><tspan x="0" y="0" class="q" dx="0" >а</tspan><tspan  y="0" class="q" dx="0" >т</tspan><tspan  y="0" class="q">с
</tspan></text><path class="m" d="m702.4 350.5c0-0.2 0.3-0.4 0.7-0.4h33.2c0.4 0 0.7 0.2 0.7 0.4v38.9c0 0.3-0.3 0.5-0.7 0.5h-33.2c-0.4 0-0.7-0.2-0.7-0.5z"/><path class="b" d="m702.4 350.5c0-0.2 0.3-0.4 0.7-0.4h33.2c0.4 0 0.7 0.2 0.7 0.4v38.9c0 0.3-0.3 0.5-0.7 0.5h-33.2c-0.4 0-0.7-0.2-0.7-0.5z"/><path class="n" d="m724.7 378.4c-3.4 0-6.2-2.7-6.2-6.1 0-3.4 2.8-6.1 6.2-6.1 3.3 0 6.1 2.7 6.1 6.1 0 3.4-2.8 6.1-6.1 6.1z"/><path  d="m724.7 376.6c-2.4 0-4.3-1.9-4.3-4.3 0-2.3 1.9-4.2 4.3-4.2 2.3 0 4.2 1.9 4.2 4.2 0 2.4-1.9 4.3-4.2 4.3z"/><text style="transform:matrix(1,0,0,1,714.016,362.243)" ><tspan x="0" y="0" class="q" dx="0" >а</tspan><tspan  y="0" class="q" dx="0" >т</tspan><tspan  y="0" class="q">с
</tspan></text><path class="m" d="m663 442.8c0-0.2 0.4-0.4 0.8-0.4h39.3c0.5 0 0.8 0.2 0.8 0.4v38.9c0 0.2-0.3 0.4-0.8 0.4h-39.3c-0.4 0-0.8-0.2-0.8-0.4z"/><path class="b" d="m663 442.8c0-0.2 0.4-0.4 0.8-0.4h39.3c0.5 0 0.8 0.2 0.8 0.4v38.9c0 0.2-0.3 0.4-0.8 0.4h-39.3c-0.4 0-0.8-0.2-0.8-0.4z"/><path class="n" d="m685.3 470.7c-3.4 0-6.2-2.7-6.2-6.1 0-3.4 2.8-6.1 6.2-6.1 3.3 0 6.1 2.7 6.1 6.1 0 3.4-2.8 6.1-6.1 6.1z"/><path  d="m685.3 468.9c-2.4 0-4.3-1.9-4.3-4.3 0-2.3 1.9-4.2 4.3-4.2 2.3 0 4.2 1.9 4.2 4.2 0 2.4-1.9 4.3-4.2 4.3z"/><text style="transform:matrix(-1,0,0,-1,690.34,472.038)" ><tspan x="0" y="0" class="q" dx="0" >а</tspan><tspan  y="0" class="q" dx="0" >т</tspan><tspan  y="0" class="q">с
</tspan></text><path class="m" d="m703.6 442.8c0-0.2 0.4-0.4 0.8-0.4h35.6c0.4 0 0.7 0.2 0.7 0.4v38.9c0 0.2-0.3 0.4-0.7 0.4h-35.6c-0.4 0-0.8-0.2-0.8-0.4z"/><path class="b" d="m703.6 442.8c0-0.2 0.4-0.4 0.8-0.4h35.6c0.4 0 0.7 0.2 0.7 0.4v38.9c0 0.2-0.3 0.4-0.7 0.4h-35.6c-0.4 0-0.8-0.2-0.8-0.4z"/><path class="n" d="m725.8 470.7c-3.3 0-6.1-2.7-6.1-6.1 0-3.4 2.8-6.1 6.1-6.1 3.4 0 6.2 2.7 6.2 6.1 0 3.4-2.8 6.1-6.2 6.1z"/><path  d="m725.8 468.9c-2.3 0-4.2-1.9-4.2-4.3 0-2.3 1.9-4.2 4.2-4.2 2.4 0 4.3 1.9 4.3 4.2 0 2.4-1.9 4.3-4.3 4.3z"/><text style="transform:matrix(-1,0,0,-1,730.936,472.038)" ><tspan x="0" y="0" class="q" dx="0" >а</tspan><tspan  y="0" class="q" dx="0" >т</tspan><tspan  y="0" class="q">с
</tspan></text><g clip-path="url(#cp88)"><path fill-rule="evenodd" class="o" d="m440.5 390.2c0 0 0.4 3.9 0.3 8.7-0.1 4.9-0.6 7.7-0.6 7.7-0.5 3.7-4.1 2.5-4.1 2.5-0.4 0-3-0.6-3.5-0.8-1.2-0.4-2-1.3-2.5-2.4-0.3-0.8-0.5-1.6-0.5-2.5q0-0.2 0-0.5l0.1-9.5q0.1-0.2 0.1-0.5c0-0.8 0.2-1.6 0.6-2.4 0.4-1.1 1.3-1.9 2.6-2.3 0.4-0.2 3-0.7 3.4-0.7 0 0 3.7-1.1 4.1 2.7zm-34.4 7.4c-0.2 13.2 8.5 11.4 8.5 11.4l8.8-1.1c4.9-0.5 5-4.9 5-4.9l0.1-8.9c-0.7-5.6-5.6-6-5.6-6-1.4-0.2-8.6-1.3-8.6-1.3-4.8-0.6-6.7 2.7-6.7 2.7-1.4 2.4-1.5 8.1-1.5 8.1z"/></g><g clip-path="url(#cp89)"><path fill-rule="evenodd" class="e" d="m440.5 390.2c0 0 0.4 3.9 0.3 8.7-0.1 4.9-0.6 7.7-0.6 7.7-0.5 3.7-4.1 2.5-4.1 2.5-0.4 0-3-0.6-3.5-0.8-1.2-0.4-2-1.3-2.5-2.4-0.3-0.8-0.5-1.6-0.5-2.5q0-0.2 0-0.5l0.1-9.5q0.1-0.2 0.1-0.5c0-0.8 0.2-1.6 0.6-2.4 0.4-1.1 1.3-1.9 2.6-2.3 0.4-0.2 3-0.7 3.4-0.7 0 0 3.7-1.1 4.1 2.7zm-34.4 7.4c-0.2 13.2 8.5 11.4 8.5 11.4l8.8-1.1c4.9-0.5 5-4.9 5-4.9l0.1-8.9c-0.7-5.6-5.6-6-5.6-6-1.4-0.2-8.6-1.3-8.6-1.3-4.8-0.6-6.7 2.7-6.7 2.7-1.4 2.4-1.5 8.1-1.5 8.1z"/></g><g clip-path="url(#cp90)"><path fill-rule="evenodd" class="p" d="m421.2 408.1v1.3l3.2-0.4c1.7-0.1 3-0.3 3.3 1.1 0.1 0.5 0.3 1.8-2.7 2.7l-9.5 2.5c-1.6 0.1-3-1-3.1-2.4-0.1-1.4 1.1-2.5 2.6-2.8l3.3-0.4v-1.2zm8.5-11.4v2.9h-1.2v-2.9zm-11.1-9.3v-1.3l2.9 0.5v1.3zm-2.6-6.9l9.4 2.8c3 0.9 2.7 2.2 2.6 2.8-0.3 1.4-1.6 1.1-3.3 0.9l-9.3-1.4c-1.5-0.3-2.7-1.4-2.6-2.8 0.2-1.4 1.6-2.5 3.2-2.3zm20.5 6.8c0.7-0.1 3.6-0.6 4 2.8 0 0 0.3 3.9 0.2 8.7 0 4.9-0.5 7.7-0.5 7.7-0.4 3.3-3.4 2.7-4 2.6 0.9-0.3 1.8-0.9 2.1-2.7 0 0 0.4-2.7 0.5-7.6 0.1-4.9-0.3-8.8-0.3-8.8-0.2-1.7-1.1-2.4-2-2.7z"/></g><g clip-path="url(#cp91)"><path fill-rule="evenodd" class="e" d="m421.2 408.1v1.3l3.2-0.4c1.7-0.1 3-0.3 3.3 1.1 0.1 0.5 0.3 1.8-2.7 2.7l-9.5 2.5c-1.6 0.1-3-1-3.1-2.4-0.1-1.4 1.1-2.5 2.6-2.8l3.3-0.4v-1.2zm8.5-11.4v2.9h-1.2v-2.9zm-11.1-9.3v-1.3l2.9 0.5v1.3zm-2.6-6.9l9.4 2.8c3 0.9 2.7 2.2 2.6 2.8-0.3 1.4-1.6 1.1-3.3 0.9l-9.3-1.4c-1.5-0.3-2.7-1.4-2.6-2.8 0.2-1.4 1.6-2.5 3.2-2.3zm20.5 6.8c0.7-0.1 3.6-0.6 4 2.8 0 0 0.3 3.9 0.2 8.7 0 4.9-0.5 7.7-0.5 7.7-0.4 3.3-3.4 2.7-4 2.6 0.9-0.3 1.8-0.9 2.1-2.7 0 0 0.4-2.7 0.5-7.6 0.1-4.9-0.3-8.8-0.3-8.8-0.2-1.7-1.1-2.4-2-2.7z"/></g><g clip-path="url(#cp92)"><path fill-rule="evenodd" class="o" d="m440.5 390.2c0 0 0.4 3.9 0.3 8.7-0.1 4.9-0.6 7.7-0.6 7.7-0.5 3.7-4.1 2.5-4.1 2.5-0.4 0-3-0.6-3.5-0.8-1.2-0.4-2-1.3-2.5-2.4-0.3-0.8-0.5-1.6-0.5-2.5q0-0.2 0-0.5l0.1-9.5q0.1-0.2 0.1-0.5c0-0.8 0.2-1.6 0.6-2.4 0.4-1.1 1.3-1.9 2.6-2.3 0.4-0.2 3-0.7 3.4-0.7 0 0 3.7-1.1 4.1 2.7zm-34.4 7.4c-0.2 13.2 8.5 11.4 8.5 11.4l8.8-1.1c4.9-0.5 5-4.9 5-4.9l0.1-8.9c-0.7-5.6-5.6-6-5.6-6-1.4-0.2-8.6-1.3-8.6-1.3-4.8-0.6-6.7 2.7-6.7 2.7-1.4 2.4-1.5 8.1-1.5 8.1z"/></g><g clip-path="url(#cp93)"><path fill-rule="evenodd" class="e" d="m440.5 390.2c0 0 0.4 3.9 0.3 8.7-0.1 4.9-0.6 7.7-0.6 7.7-0.5 3.7-4.1 2.5-4.1 2.5-0.4 0-3-0.6-3.5-0.8-1.2-0.4-2-1.3-2.5-2.4-0.3-0.8-0.5-1.6-0.5-2.5q0-0.2 0-0.5l0.1-9.5q0.1-0.2 0.1-0.5c0-0.8 0.2-1.6 0.6-2.4 0.4-1.1 1.3-1.9 2.6-2.3 0.4-0.2 3-0.7 3.4-0.7 0 0 3.7-1.1 4.1 2.7zm-34.4 7.4c-0.2 13.2 8.5 11.4 8.5 11.4l8.8-1.1c4.9-0.5 5-4.9 5-4.9l0.1-8.9c-0.7-5.6-5.6-6-5.6-6-1.4-0.2-8.6-1.3-8.6-1.3-4.8-0.6-6.7 2.7-6.7 2.7-1.4 2.4-1.5 8.1-1.5 8.1z"/></g><g clip-path="url(#cp94)"><path fill-rule="evenodd" class="p" d="m421.2 408.1v1.3l3.2-0.4c1.7-0.1 3-0.3 3.3 1.1 0.1 0.5 0.3 1.8-2.7 2.7l-9.5 2.5c-1.6 0.1-3-1-3.1-2.4-0.1-1.4 1.1-2.5 2.6-2.8l3.3-0.4v-1.2zm8.5-11.4v2.9h-1.2v-2.9zm-11.1-9.3v-1.3l2.9 0.5v1.3zm-2.6-6.9l9.4 2.8c3 0.9 2.7 2.2 2.6 2.8-0.3 1.4-1.6 1.1-3.3 0.9l-9.3-1.4c-1.5-0.3-2.7-1.4-2.6-2.8 0.2-1.4 1.6-2.5 3.2-2.3zm20.5 6.8c0.7-0.1 3.6-0.6 4 2.8 0 0 0.3 3.9 0.2 8.7 0 4.9-0.5 7.7-0.5 7.7-0.4 3.3-3.4 2.7-4 2.6 0.9-0.3 1.8-0.9 2.1-2.7 0 0 0.4-2.7 0.5-7.6 0.1-4.9-0.3-8.8-0.3-8.8-0.2-1.7-1.1-2.4-2-2.7z"/></g><g clip-path="url(#cp95)"><path fill-rule="evenodd" class="e" d="m421.2 408.1v1.3l3.2-0.4c1.7-0.1 3-0.3 3.3 1.1 0.1 0.5 0.3 1.8-2.7 2.7l-9.5 2.5c-1.6 0.1-3-1-3.1-2.4-0.1-1.4 1.1-2.5 2.6-2.8l3.3-0.4v-1.2zm8.5-11.4v2.9h-1.2v-2.9zm-11.1-9.3v-1.3l2.9 0.5v1.3zm-2.6-6.9l9.4 2.8c3 0.9 2.7 2.2 2.6 2.8-0.3 1.4-1.6 1.1-3.3 0.9l-9.3-1.4c-1.5-0.3-2.7-1.4-2.6-2.8 0.2-1.4 1.6-2.5 3.2-2.3zm20.5 6.8c0.7-0.1 3.6-0.6 4 2.8 0 0 0.3 3.9 0.2 8.7 0 4.9-0.5 7.7-0.5 7.7-0.4 3.3-3.4 2.7-4 2.6 0.9-0.3 1.8-0.9 2.1-2.7 0 0 0.4-2.7 0.5-7.6 0.1-4.9-0.3-8.8-0.3-8.8-0.2-1.7-1.1-2.4-2-2.7z"/></g><g clip-path="url(#cp96)"><path fill-rule="evenodd" class="o" d="m444.4 440.5c0 0 0.3 3.9 0.2 8.8 0 4.8-0.5 7.6-0.5 7.6-0.5 3.7-4.1 2.6-4.1 2.6-0.4 0-3-0.7-3.5-0.8-1.2-0.5-2.1-1.3-2.5-2.4-0.3-0.8-0.5-1.6-0.5-2.5q0-0.2 0-0.5l0.1-9.5q0-0.2 0-0.5c0-0.8 0.3-1.7 0.6-2.5 0.5-1.1 1.4-1.8 2.6-2.2 0.5-0.2 3.1-0.7 3.5-0.8 0 0 3.7-1 4.1 2.7zm-34.5 7.4c-0.2 13.2 8.6 11.4 8.6 11.4l8.7-1.1c5-0.5 5.1-4.8 5.1-4.8l0.1-9c-0.8-5.5-5.6-5.9-5.6-5.9-1.4-0.2-8.7-1.4-8.7-1.4-4.7-0.6-6.6 2.8-6.6 2.8-1.5 2.4-1.6 8-1.6 8z"/></g><g clip-path="url(#cp97)"><path fill-rule="evenodd" class="e" d="m444.4 440.5c0 0 0.3 3.9 0.2 8.8 0 4.8-0.5 7.6-0.5 7.6-0.5 3.7-4.1 2.6-4.1 2.6-0.4 0-3-0.7-3.5-0.8-1.2-0.5-2.1-1.3-2.5-2.4-0.3-0.8-0.5-1.6-0.5-2.5q0-0.2 0-0.5l0.1-9.5q0-0.2 0-0.5c0-0.8 0.3-1.7 0.6-2.5 0.5-1.1 1.4-1.8 2.6-2.2 0.5-0.2 3.1-0.7 3.5-0.8 0 0 3.7-1 4.1 2.7zm-34.5 7.4c-0.2 13.2 8.6 11.4 8.6 11.4l8.7-1.1c5-0.5 5.1-4.8 5.1-4.8l0.1-9c-0.8-5.5-5.6-5.9-5.6-5.9-1.4-0.2-8.7-1.4-8.7-1.4-4.7-0.6-6.6 2.8-6.6 2.8-1.5 2.4-1.6 8-1.6 8z"/></g><g clip-path="url(#cp98)"><path fill-rule="evenodd" class="p" d="m425 458.5l0.1 1.2 3.1-0.4c1.8-0.1 3.1-0.3 3.3 1.1 0.1 0.5 0.3 1.9-2.6 2.7l-9.6 2.5c-1.6 0.1-2.9-1-3.1-2.4-0.1-1.4 1.2-2.4 2.7-2.7l3.2-0.4v-1.3zm8.6-11.3l-0.1 2.9-1.2-0.1 0.1-2.8zm-11.1-9.3v-1.3l2.9 0.5v1.2zm0-1.3l-3.2-0.5c-1.6-0.3-2.7-1.4-2.6-2.8 0.2-1.4 1.6-2.4 3.1-2.3l9.5 2.8c2.9 1 2.7 2.3 2.6 2.8-0.3 1.4-1.6 1.2-3.3 1l-3.2-0.5-2.9-0.5zm17.9 1.3c0.6-0.2 3.6-0.6 3.9 2.7 0 0 0.4 3.9 0.3 8.8-0.1 4.8-0.5 7.6-0.5 7.6-0.5 3.3-3.4 2.8-4 2.6 0.9-0.2 1.8-0.9 2.1-2.6 0 0 0.4-2.8 0.5-7.7 0.1-4.8-0.3-8.7-0.3-8.7-0.2-1.8-1.1-2.5-2-2.7z"/></g><g clip-path="url(#cp99)"><path fill-rule="evenodd" class="e" d="m425 458.5l0.1 1.2 3.1-0.4c1.8-0.1 3.1-0.3 3.3 1.1 0.1 0.5 0.3 1.9-2.6 2.7l-9.6 2.5c-1.6 0.1-2.9-1-3.1-2.4-0.1-1.4 1.2-2.4 2.7-2.7l3.2-0.4v-1.3zm8.6-11.3l-0.1 2.9-1.2-0.1 0.1-2.8zm-11.1-9.3v-1.3l2.9 0.5v1.2zm0-1.3l-3.2-0.5c-1.6-0.3-2.7-1.4-2.6-2.8 0.2-1.4 1.6-2.4 3.1-2.3l9.5 2.8c2.9 1 2.7 2.3 2.6 2.8-0.3 1.4-1.6 1.2-3.3 1l-3.2-0.5-2.9-0.5zm17.9 1.3c0.6-0.2 3.6-0.6 3.9 2.7 0 0 0.4 3.9 0.3 8.8-0.1 4.8-0.5 7.6-0.5 7.6-0.5 3.3-3.4 2.8-4 2.6 0.9-0.2 1.8-0.9 2.1-2.6 0 0 0.4-2.8 0.5-7.7 0.1-4.8-0.3-8.7-0.3-8.7-0.2-1.8-1.1-2.5-2-2.7z"/></g><g clip-path="url(#cp100)"><path fill-rule="evenodd" class="o" d="m444.4 440.5c0 0 0.3 3.9 0.2 8.8 0 4.8-0.5 7.6-0.5 7.6-0.5 3.7-4.1 2.6-4.1 2.6-0.4 0-3-0.7-3.5-0.8-1.2-0.5-2.1-1.3-2.5-2.4-0.3-0.8-0.5-1.6-0.5-2.5q0-0.2 0-0.5l0.1-9.5q0-0.2 0-0.5c0-0.8 0.3-1.7 0.6-2.5 0.5-1.1 1.4-1.8 2.6-2.2 0.5-0.2 3.1-0.7 3.5-0.8 0 0 3.7-1 4.1 2.7zm-34.5 7.4c-0.2 13.2 8.6 11.4 8.6 11.4l8.7-1.1c5-0.5 5.1-4.8 5.1-4.8l0.1-9c-0.8-5.5-5.6-5.9-5.6-5.9-1.4-0.2-8.7-1.4-8.7-1.4-4.7-0.6-6.6 2.8-6.6 2.8-1.5 2.4-1.6 8-1.6 8z"/></g><g clip-path="url(#cp101)"><path fill-rule="evenodd" class="e" d="m444.4 440.5c0 0 0.3 3.9 0.2 8.8 0 4.8-0.5 7.6-0.5 7.6-0.5 3.7-4.1 2.6-4.1 2.6-0.4 0-3-0.7-3.5-0.8-1.2-0.5-2.1-1.3-2.5-2.4-0.3-0.8-0.5-1.6-0.5-2.5q0-0.2 0-0.5l0.1-9.5q0-0.2 0-0.5c0-0.8 0.3-1.7 0.6-2.5 0.5-1.1 1.4-1.8 2.6-2.2 0.5-0.2 3.1-0.7 3.5-0.8 0 0 3.7-1 4.1 2.7zm-34.5 7.4c-0.2 13.2 8.6 11.4 8.6 11.4l8.7-1.1c5-0.5 5.1-4.8 5.1-4.8l0.1-9c-0.8-5.5-5.6-5.9-5.6-5.9-1.4-0.2-8.7-1.4-8.7-1.4-4.7-0.6-6.6 2.8-6.6 2.8-1.5 2.4-1.6 8-1.6 8z"/></g><g clip-path="url(#cp102)"><path fill-rule="evenodd" class="p" d="m425 458.5l0.1 1.2 3.1-0.4c1.8-0.1 3.1-0.3 3.3 1.1 0.1 0.5 0.3 1.9-2.6 2.7l-9.6 2.5c-1.6 0.1-2.9-1-3.1-2.4-0.1-1.4 1.2-2.4 2.7-2.7l3.2-0.4v-1.3zm8.6-11.3l-0.1 2.9-1.2-0.1 0.1-2.8zm-11.1-9.3v-1.3l2.9 0.5v1.2zm0-1.3l-3.2-0.5c-1.6-0.3-2.7-1.4-2.6-2.8 0.2-1.4 1.6-2.4 3.1-2.3l9.5 2.8c2.9 1 2.7 2.3 2.6 2.8-0.3 1.4-1.6 1.2-3.3 1l-3.2-0.5-2.9-0.5zm17.9 1.3c0.6-0.2 3.6-0.6 3.9 2.7 0 0 0.4 3.9 0.3 8.8-0.1 4.8-0.5 7.6-0.5 7.6-0.5 3.3-3.4 2.8-4 2.6 0.9-0.2 1.8-0.9 2.1-2.6 0 0 0.4-2.8 0.5-7.7 0.1-4.8-0.3-8.7-0.3-8.7-0.2-1.8-1.1-2.5-2-2.7z"/></g><g clip-path="url(#cp103)"><path fill-rule="evenodd" class="e" d="m425 458.5l0.1 1.2 3.1-0.4c1.8-0.1 3.1-0.3 3.3 1.1 0.1 0.5 0.3 1.9-2.6 2.7l-9.6 2.5c-1.6 0.1-2.9-1-3.1-2.4-0.1-1.4 1.2-2.4 2.7-2.7l3.2-0.4v-1.3zm8.6-11.3l-0.1 2.9-1.2-0.1 0.1-2.8zm-11.1-9.3v-1.3l2.9 0.5v1.2zm0-1.3l-3.2-0.5c-1.6-0.3-2.7-1.4-2.6-2.8 0.2-1.4 1.6-2.4 3.1-2.3l9.5 2.8c2.9 1 2.7 2.3 2.6 2.8-0.3 1.4-1.6 1.2-3.3 1l-3.2-0.5-2.9-0.5zm17.9 1.3c0.6-0.2 3.6-0.6 3.9 2.7 0 0 0.4 3.9 0.3 8.8-0.1 4.8-0.5 7.6-0.5 7.6-0.5 3.3-3.4 2.8-4 2.6 0.9-0.2 1.8-0.9 2.1-2.6 0 0 0.4-2.8 0.5-7.7 0.1-4.8-0.3-8.7-0.3-8.7-0.2-1.8-1.1-2.5-2-2.7z"/></g><g clip-path="url(#cp104)"><path fill-rule="evenodd" class="o" d="m449.2 407.8c0 0-0.4-4.2-0.3-9.4 0.1-5.2 0.6-8.1 0.6-8.1 0.5-4 4.4-2.8 4.4-2.8 0.4 0.1 3.2 0.7 3.7 0.9 1.3 0.5 2.2 1.3 2.7 2.5 0.3 0.9 0.5 1.8 0.5 2.7q0 0.3 0 0.5l-0.2 10.2q0 0.2 0 0.5c0 0.9-0.2 1.8-0.6 2.6-0.5 1.2-1.4 2.1-2.8 2.5-0.5 0.2-3.3 0.7-3.7 0.8 0 0-3.9 1.1-4.3-2.9zm36.8-7.9c0.2-14.2-9.2-12.2-9.2-12.2l-9.3 1.2c-5.3 0.5-5.4 5.1-5.4 5.1l-0.1 9.6c0.8 6 6 6.4 6 6.4 1.5 0.2 9.2 1.4 9.2 1.4 5.1 0.7 7.1-2.9 7.1-2.9 1.6-2.6 1.7-8.6 1.7-8.6z"/></g><g clip-path="url(#cp105)"><path fill-rule="evenodd" class="e" d="m449.2 407.8c0 0-0.4-4.2-0.3-9.4 0.1-5.2 0.6-8.1 0.6-8.1 0.5-4 4.4-2.8 4.4-2.8 0.4 0.1 3.2 0.7 3.7 0.9 1.3 0.5 2.2 1.3 2.7 2.5 0.3 0.9 0.5 1.8 0.5 2.7q0 0.3 0 0.5l-0.2 10.2q0 0.2 0 0.5c0 0.9-0.2 1.8-0.6 2.6-0.5 1.2-1.4 2.1-2.8 2.5-0.5 0.2-3.3 0.7-3.7 0.8 0 0-3.9 1.1-4.3-2.9zm36.8-7.9c0.2-14.2-9.2-12.2-9.2-12.2l-9.3 1.2c-5.3 0.5-5.4 5.1-5.4 5.1l-0.1 9.6c0.8 6 6 6.4 6 6.4 1.5 0.2 9.2 1.4 9.2 1.4 5.1 0.7 7.1-2.9 7.1-2.9 1.6-2.6 1.7-8.6 1.7-8.6z"/></g><g clip-path="url(#cp106)"><path fill-rule="evenodd" class="p" d="m469.8 388.6v-1.3l-3.4 0.4c-1.9 0.1-3.3 0.3-3.5-1.2-0.1-0.5-0.3-2 2.8-2.9l10.2-2.6c1.7-0.1 3.2 1 3.3 2.5 0.1 1.5-1.2 2.6-2.8 2.9l-3.5 0.5v1.3zm-9.1 12.2v-3.1h1.3v3.1zm11.8 9.9v1.4l-3.1-0.5 0.1-1.4zm2.8 7.4l-10.2-3c-3.1-1-2.9-2.4-2.7-3 0.3-1.5 1.7-1.2 3.5-1l9.9 1.5c1.7 0.4 3 1.5 2.8 3-0.2 1.6-1.7 2.7-3.3 2.5zm-22-7.3c-0.7 0.1-3.8 0.6-4.2-3 0 0-0.4-4.1-0.3-9.3 0-5.2 0.5-8.2 0.5-8.2 0.5-3.5 3.7-2.9 4.3-2.8-0.9 0.3-1.9 1-2.2 2.9 0 0-0.5 2.9-0.6 8.1 0 5.2 0.3 9.4 0.3 9.4 0.2 1.9 1.2 2.6 2.2 2.9z"/></g><g clip-path="url(#cp107)"><path fill-rule="evenodd" class="e" d="m469.8 388.6v-1.3l-3.4 0.4c-1.9 0.1-3.3 0.3-3.5-1.2-0.1-0.5-0.3-2 2.8-2.9l10.2-2.6c1.7-0.1 3.2 1 3.3 2.5 0.1 1.5-1.2 2.6-2.8 2.9l-3.5 0.5v1.3zm-9.1 12.2v-3.1h1.3v3.1zm11.8 9.9v1.4l-3.1-0.5 0.1-1.4zm2.8 7.4l-10.2-3c-3.1-1-2.9-2.4-2.7-3 0.3-1.5 1.7-1.2 3.5-1l9.9 1.5c1.7 0.4 3 1.5 2.8 3-0.2 1.6-1.7 2.7-3.3 2.5zm-22-7.3c-0.7 0.1-3.8 0.6-4.2-3 0 0-0.4-4.1-0.3-9.3 0-5.2 0.5-8.2 0.5-8.2 0.5-3.5 3.7-2.9 4.3-2.8-0.9 0.3-1.9 1-2.2 2.9 0 0-0.5 2.9-0.6 8.1 0 5.2 0.3 9.4 0.3 9.4 0.2 1.9 1.2 2.6 2.2 2.9z"/></g><g clip-path="url(#cp108)"><path fill-rule="evenodd" class="o" d="m449.2 407.8c0 0-0.4-4.2-0.3-9.4 0.1-5.2 0.6-8.1 0.6-8.1 0.5-4 4.4-2.8 4.4-2.8 0.4 0.1 3.2 0.7 3.7 0.9 1.3 0.5 2.2 1.3 2.7 2.5 0.3 0.9 0.5 1.8 0.5 2.7q0 0.3 0 0.5l-0.2 10.2q0 0.2 0 0.5c0 0.9-0.2 1.8-0.6 2.6-0.5 1.2-1.4 2.1-2.8 2.5-0.5 0.2-3.3 0.7-3.7 0.8 0 0-3.9 1.1-4.3-2.9zm36.8-7.9c0.2-14.2-9.2-12.2-9.2-12.2l-9.3 1.2c-5.3 0.5-5.4 5.1-5.4 5.1l-0.1 9.6c0.8 6 6 6.4 6 6.4 1.5 0.2 9.2 1.4 9.2 1.4 5.1 0.7 7.1-2.9 7.1-2.9 1.6-2.6 1.7-8.6 1.7-8.6z"/></g><g clip-path="url(#cp109)"><path fill-rule="evenodd" class="e" d="m449.2 407.8c0 0-0.4-4.2-0.3-9.4 0.1-5.2 0.6-8.1 0.6-8.1 0.5-4 4.4-2.8 4.4-2.8 0.4 0.1 3.2 0.7 3.7 0.9 1.3 0.5 2.2 1.3 2.7 2.5 0.3 0.9 0.5 1.8 0.5 2.7q0 0.3 0 0.5l-0.2 10.2q0 0.2 0 0.5c0 0.9-0.2 1.8-0.6 2.6-0.5 1.2-1.4 2.1-2.8 2.5-0.5 0.2-3.3 0.7-3.7 0.8 0 0-3.9 1.1-4.3-2.9zm36.8-7.9c0.2-14.2-9.2-12.2-9.2-12.2l-9.3 1.2c-5.3 0.5-5.4 5.1-5.4 5.1l-0.1 9.6c0.8 6 6 6.4 6 6.4 1.5 0.2 9.2 1.4 9.2 1.4 5.1 0.7 7.1-2.9 7.1-2.9 1.6-2.6 1.7-8.6 1.7-8.6z"/></g><g clip-path="url(#cp110)"><path fill-rule="evenodd" class="p" d="m469.8 388.6v-1.3l-3.4 0.4c-1.9 0.1-3.3 0.3-3.5-1.2-0.1-0.5-0.3-2 2.8-2.9l10.2-2.6c1.7-0.1 3.2 1 3.3 2.5 0.1 1.5-1.2 2.6-2.8 2.9l-3.5 0.5v1.3zm-9.1 12.2v-3.1h1.3v3.1zm11.8 9.9v1.4l-3.1-0.5 0.1-1.4zm2.8 7.4l-10.2-3c-3.1-1-2.9-2.4-2.7-3 0.3-1.5 1.7-1.2 3.5-1l9.9 1.5c1.7 0.4 3 1.5 2.8 3-0.2 1.6-1.7 2.7-3.3 2.5zm-22-7.3c-0.7 0.1-3.8 0.6-4.2-3 0 0-0.4-4.1-0.3-9.3 0-5.2 0.5-8.2 0.5-8.2 0.5-3.5 3.7-2.9 4.3-2.8-0.9 0.3-1.9 1-2.2 2.9 0 0-0.5 2.9-0.6 8.1 0 5.2 0.3 9.4 0.3 9.4 0.2 1.9 1.2 2.6 2.2 2.9z"/></g><g clip-path="url(#cp111)"><path fill-rule="evenodd" class="e" d="m469.8 388.6v-1.3l-3.4 0.4c-1.9 0.1-3.3 0.3-3.5-1.2-0.1-0.5-0.3-2 2.8-2.9l10.2-2.6c1.7-0.1 3.2 1 3.3 2.5 0.1 1.5-1.2 2.6-2.8 2.9l-3.5 0.5v1.3zm-9.1 12.2v-3.1h1.3v3.1zm11.8 9.9v1.4l-3.1-0.5 0.1-1.4zm2.8 7.4l-10.2-3c-3.1-1-2.9-2.4-2.7-3 0.3-1.5 1.7-1.2 3.5-1l9.9 1.5c1.7 0.4 3 1.5 2.8 3-0.2 1.6-1.7 2.7-3.3 2.5zm-22-7.3c-0.7 0.1-3.8 0.6-4.2-3 0 0-0.4-4.1-0.3-9.3 0-5.2 0.5-8.2 0.5-8.2 0.5-3.5 3.7-2.9 4.3-2.8-0.9 0.3-1.9 1-2.2 2.9 0 0-0.5 2.9-0.6 8.1 0 5.2 0.3 9.4 0.3 9.4 0.2 1.9 1.2 2.6 2.2 2.9z"/></g><g clip-path="url(#cp112)"><path fill-rule="evenodd" class="o" d="m454.3 453.7c0 0-0.3-3.8-0.3-8.7 0.1-4.8 0.6-7.6 0.6-7.6 0.5-3.7 4.1-2.6 4.1-2.6 0.4 0.1 3 0.7 3.4 0.9 1.3 0.4 2.1 1.2 2.5 2.3 0.4 0.8 0.6 1.7 0.6 2.5q0 0.3 0 0.5l-0.2 9.5q0 0.2 0 0.5c0 0.8-0.3 1.6-0.6 2.4-0.5 1.1-1.3 1.9-2.6 2.3-0.4 0.2-3 0.7-3.4 0.7 0 0-3.7 1-4.1-2.7zm34.3-7.3c0.2-13.2-8.5-11.4-8.5-11.4l-8.7 1.1c-5 0.5-5 4.8-5 4.8l-0.2 9c0.8 5.5 5.6 5.9 5.6 5.9 1.4 0.2 8.6 1.3 8.6 1.3 4.7 0.6 6.7-2.7 6.7-2.7 1.4-2.4 1.5-8 1.5-8z"/></g><g clip-path="url(#cp113)"><path fill-rule="evenodd" class="e" d="m454.3 453.7c0 0-0.3-3.8-0.3-8.7 0.1-4.8 0.6-7.6 0.6-7.6 0.5-3.7 4.1-2.6 4.1-2.6 0.4 0.1 3 0.7 3.4 0.9 1.3 0.4 2.1 1.2 2.5 2.3 0.4 0.8 0.6 1.7 0.6 2.5q0 0.3 0 0.5l-0.2 9.5q0 0.2 0 0.5c0 0.8-0.3 1.6-0.6 2.4-0.5 1.1-1.3 1.9-2.6 2.3-0.4 0.2-3 0.7-3.4 0.7 0 0-3.7 1-4.1-2.7zm34.3-7.3c0.2-13.2-8.5-11.4-8.5-11.4l-8.7 1.1c-5 0.5-5 4.8-5 4.8l-0.2 9c0.8 5.5 5.6 5.9 5.6 5.9 1.4 0.2 8.6 1.3 8.6 1.3 4.7 0.6 6.7-2.7 6.7-2.7 1.4-2.4 1.5-8 1.5-8z"/></g><g clip-path="url(#cp114)"><path fill-rule="evenodd" class="p" d="m473.6 435.9l-0.1-1.3-3.1 0.4c-1.8 0.1-3.1 0.3-3.3-1.1-0.1-0.5-0.3-1.8 2.6-2.7l9.6-2.5c1.5-0.1 2.9 1 3 2.4 0.1 1.4-1.1 2.5-2.6 2.7l-3.2 0.4-0.1 1.3zm-8.4 11.3v-2.9l1.2 0.1-0.1 2.8zm11.1 9.3v1.2l-2.9-0.4v-1.3zm2.6 6.9l-9.4-2.8c-2.9-0.9-2.7-2.3-2.6-2.8 0.3-1.4 1.6-1.1 3.3-1l9.3 1.5c1.5 0.3 2.7 1.4 2.6 2.8-0.2 1.4-1.6 2.4-3.2 2.3zm-20.4-6.8c-0.7 0.1-3.6 0.6-4-2.8 0 0-0.3-3.8-0.3-8.7 0.1-4.8 0.6-7.6 0.6-7.6 0.4-3.3 3.4-2.7 4-2.6-0.9 0.2-1.9 0.9-2.1 2.6 0 0-0.5 2.8-0.5 7.6-0.1 4.9 0.3 8.8 0.3 8.8 0.1 1.7 1 2.4 2 2.7z"/></g><g clip-path="url(#cp115)"><path fill-rule="evenodd" class="e" d="m473.6 435.9l-0.1-1.3-3.1 0.4c-1.8 0.1-3.1 0.3-3.3-1.1-0.1-0.5-0.3-1.8 2.6-2.7l9.6-2.5c1.5-0.1 2.9 1 3 2.4 0.1 1.4-1.1 2.5-2.6 2.7l-3.2 0.4-0.1 1.3zm-8.4 11.3v-2.9l1.2 0.1-0.1 2.8zm11.1 9.3v1.2l-2.9-0.4v-1.3zm2.6 6.9l-9.4-2.8c-2.9-0.9-2.7-2.3-2.6-2.8 0.3-1.4 1.6-1.1 3.3-1l9.3 1.5c1.5 0.3 2.7 1.4 2.6 2.8-0.2 1.4-1.6 2.4-3.2 2.3zm-20.4-6.8c-0.7 0.1-3.6 0.6-4-2.8 0 0-0.3-3.8-0.3-8.7 0.1-4.8 0.6-7.6 0.6-7.6 0.4-3.3 3.4-2.7 4-2.6-0.9 0.2-1.9 0.9-2.1 2.6 0 0-0.5 2.8-0.5 7.6-0.1 4.9 0.3 8.8 0.3 8.8 0.1 1.7 1 2.4 2 2.7z"/></g><g clip-path="url(#cp116)"><path fill-rule="evenodd" class="o" d="m454.3 453.7c0 0-0.3-3.8-0.3-8.7 0.1-4.8 0.6-7.6 0.6-7.6 0.5-3.7 4.1-2.6 4.1-2.6 0.4 0.1 3 0.7 3.4 0.9 1.3 0.4 2.1 1.2 2.5 2.3 0.4 0.8 0.6 1.7 0.6 2.5q0 0.3 0 0.5l-0.2 9.5q0 0.2 0 0.5c0 0.8-0.3 1.6-0.6 2.4-0.5 1.1-1.3 1.9-2.6 2.3-0.4 0.2-3 0.7-3.4 0.7 0 0-3.7 1-4.1-2.7zm34.3-7.3c0.2-13.2-8.5-11.4-8.5-11.4l-8.7 1.1c-5 0.5-5 4.8-5 4.8l-0.2 9c0.8 5.5 5.6 5.9 5.6 5.9 1.4 0.2 8.6 1.3 8.6 1.3 4.7 0.6 6.7-2.7 6.7-2.7 1.4-2.4 1.5-8 1.5-8z"/></g><g clip-path="url(#cp117)"><path fill-rule="evenodd" class="e" d="m454.3 453.7c0 0-0.3-3.8-0.3-8.7 0.1-4.8 0.6-7.6 0.6-7.6 0.5-3.7 4.1-2.6 4.1-2.6 0.4 0.1 3 0.7 3.4 0.9 1.3 0.4 2.1 1.2 2.5 2.3 0.4 0.8 0.6 1.7 0.6 2.5q0 0.3 0 0.5l-0.2 9.5q0 0.2 0 0.5c0 0.8-0.3 1.6-0.6 2.4-0.5 1.1-1.3 1.9-2.6 2.3-0.4 0.2-3 0.7-3.4 0.7 0 0-3.7 1-4.1-2.7zm34.3-7.3c0.2-13.2-8.5-11.4-8.5-11.4l-8.7 1.1c-5 0.5-5 4.8-5 4.8l-0.2 9c0.8 5.5 5.6 5.9 5.6 5.9 1.4 0.2 8.6 1.3 8.6 1.3 4.7 0.6 6.7-2.7 6.7-2.7 1.4-2.4 1.5-8 1.5-8z"/></g><g clip-path="url(#cp118)"><path fill-rule="evenodd" class="p" d="m473.6 435.9l-0.1-1.3-3.1 0.4c-1.8 0.1-3.1 0.3-3.3-1.1-0.1-0.5-0.3-1.8 2.6-2.7l9.6-2.5c1.5-0.1 2.9 1 3 2.4 0.1 1.4-1.1 2.5-2.6 2.7l-3.2 0.4-0.1 1.3zm-8.4 11.3v-2.9l1.2 0.1-0.1 2.8zm11.1 9.3v1.2l-2.9-0.4v-1.3zm2.6 6.9l-9.4-2.8c-2.9-0.9-2.7-2.3-2.6-2.8 0.3-1.4 1.6-1.1 3.3-1l9.3 1.5c1.5 0.3 2.7 1.4 2.6 2.8-0.2 1.4-1.6 2.4-3.2 2.3zm-20.4-6.8c-0.7 0.1-3.6 0.6-4-2.8 0 0-0.3-3.8-0.3-8.7 0.1-4.8 0.6-7.6 0.6-7.6 0.4-3.3 3.4-2.7 4-2.6-0.9 0.2-1.9 0.9-2.1 2.6 0 0-0.5 2.8-0.5 7.6-0.1 4.9 0.3 8.8 0.3 8.8 0.1 1.7 1 2.4 2 2.7z"/></g><g clip-path="url(#cp119)"><path fill-rule="evenodd" class="e" d="m473.6 435.9l-0.1-1.3-3.1 0.4c-1.8 0.1-3.1 0.3-3.3-1.1-0.1-0.5-0.3-1.8 2.6-2.7l9.6-2.5c1.5-0.1 2.9 1 3 2.4 0.1 1.4-1.1 2.5-2.6 2.7l-3.2 0.4-0.1 1.3zm-8.4 11.3v-2.9l1.2 0.1-0.1 2.8zm11.1 9.3v1.2l-2.9-0.4v-1.3zm2.6 6.9l-9.4-2.8c-2.9-0.9-2.7-2.3-2.6-2.8 0.3-1.4 1.6-1.1 3.3-1l9.3 1.5c1.5 0.3 2.7 1.4 2.6 2.8-0.2 1.4-1.6 2.4-3.2 2.3zm-20.4-6.8c-0.7 0.1-3.6 0.6-4-2.8 0 0-0.3-3.8-0.3-8.7 0.1-4.8 0.6-7.6 0.6-7.6 0.4-3.3 3.4-2.7 4-2.6-0.9 0.2-1.9 0.9-2.1 2.6 0 0-0.5 2.8-0.5 7.6-0.1 4.9 0.3 8.8 0.3 8.8 0.1 1.7 1 2.4 2 2.7z"/></g><g clip-path="url(#cp120)"><path class="c" d="m822.6 107.9h17.3v102h-17.3z"/></g><g clip-path="url(#cp121)"><path class="d" d="m822.6 107.9h17.3v102h-17.3z"/></g><g clip-path="url(#cp122)"><path fill-rule="evenodd" class="c" d="m839.7 113.5h-17v-5.6h17zm0 96.3h-17v-5.6h17z"/></g><g clip-path="url(#cp123)"><path fill-rule="evenodd" class="e" d="m828.4 113.5h-5.7v-5.6h17m0 0v5.6h-5.7zm0 102.1h-17v-5.7h5.7zm-5.7-5.6h5.7v5.6z"/></g><g clip-path="url(#cp124)"><path fill-rule="evenodd" class="c" d="m834 113.5v5.7h-5.6v-5.7zm0 90.8v-5.7h-5.7v5.7z"/></g><g clip-path="url(#cp125)"><path fill-rule="evenodd" class="e" d="m834 113.5v5.7h-5.6v-5.7zm0 90.8v-5.7h-5.7v5.7z"/></g><g clip-path="url(#cp126)"><path class="e" d="m831.2 198.6v-79.4"/></g><g clip-path="url(#cp127)"><path class="e" d="m839.7 107.9h-17m17 102h-17"/></g><g clip-path="url(#cp128)"><path fill-rule="evenodd" class="o" d="m711.9 419.5c0 0 3.9-0.4 8.7-0.3 4.8 0.1 7.6 0.6 7.6 0.6 3.7 0.5 2.6 4.1 2.6 4.1-0.1 0.4-0.7 3-0.9 3.4-0.4 1.3-1.2 2.1-2.3 2.5-0.8 0.3-1.6 0.6-2.5 0.6q-0.2 0-0.5 0l-9.4-0.2q-0.3 0-0.5 0c-0.9 0-1.7-0.3-2.5-0.6-1.1-0.5-1.9-1.3-2.3-2.6-0.2-0.5-0.7-3.1-0.7-3.4 0 0-1-3.7 2.7-4.1zm7.3 34.3c13.2 0.2 11.4-8.5 11.4-8.5l-1.1-8.7c-0.5-5-4.8-5-4.8-5l-9-0.2c-5.5 0.8-5.9 5.6-5.9 5.6-0.1 1.4-1.3 8.6-1.3 8.6-0.6 4.7 2.7 6.7 2.7 6.7 2.5 1.4 8 1.5 8 1.5z"/></g><g clip-path="url(#cp129)"><path fill-rule="evenodd" class="e" d="m711.9 419.5c0 0 3.9-0.4 8.7-0.3 4.8 0.1 7.6 0.6 7.6 0.6 3.7 0.5 2.6 4.1 2.6 4.1-0.1 0.4-0.7 3-0.9 3.4-0.4 1.3-1.2 2.1-2.3 2.5-0.8 0.3-1.6 0.6-2.5 0.6q-0.2 0-0.5 0l-9.4-0.2q-0.3 0-0.5 0c-0.9 0-1.7-0.3-2.5-0.6-1.1-0.5-1.9-1.3-2.3-2.6-0.2-0.5-0.7-3.1-0.7-3.4 0 0-1-3.7 2.7-4.1zm7.3 34.3c13.2 0.2 11.4-8.5 11.4-8.5l-1.1-8.7c-0.5-5-4.8-5-4.8-5l-9-0.2c-5.5 0.8-5.9 5.6-5.9 5.6-0.1 1.4-1.3 8.6-1.3 8.6-0.6 4.7 2.7 6.7 2.7 6.7 2.5 1.4 8 1.5 8 1.5z"/></g><path fill-rule="evenodd" class="p" d="m729.8 438.7h1.2l-0.4-3.1c-0.1-1.8-0.3-3.1 1.1-3.3 0.5-0.1 1.8-0.3 2.7 2.6l2.5 9.5c0.1 1.6-1 3-2.4 3.1-1.4 0.1-2.5-1.1-2.7-2.7l-0.4-3.2h-1.3zm-11.3-8.5l2.8 0.1v1.2l-2.8-0.1zm-9.3 11.1h-1.3l0.1-0.2 0.4-2.7h1.2zm-1.7 3.2c-0.3 1.5-1.4 2.7-2.8 2.5-1.4-0.1-2.5-1.5-2.3-3.1l2.8-9.4c0.9-2.9 2.2-2.7 2.8-2.6 1.3 0.3 1.1 1.6 0.9 3.3l-0.5 3.2-0.4 2.7zm1.7-21c-0.1-0.6-0.5-3.6 2.8-3.9 0 0 3.9-0.4 8.7-0.3 4.8 0.1 7.6 0.5 7.6 0.5 3.3 0.5 2.8 3.4 2.6 4-0.2-0.9-0.9-1.8-2.6-2.1 0 0-2.8-0.4-7.6-0.5-4.9-0.1-8.8 0.3-8.8 0.3-1.7 0.2-2.4 1.1-2.7 2z"/><path fill-rule="evenodd" class="e" d="m729.8 438.7h1.2l-0.4-3.1c-0.1-1.8-0.3-3.1 1.1-3.3 0.5-0.1 1.8-0.3 2.7 2.6l2.5 9.5c0.1 1.6-1 3-2.4 3.1-1.4 0.1-2.5-1.1-2.7-2.7l-0.4-3.2h-1.3zm-11.3-8.5l2.8 0.1v1.2l-2.8-0.1zm-9.3 11.1h-1.3l0.1-0.2 0.4-2.7h1.2zm-1.7 3.2c-0.3 1.5-1.4 2.7-2.8 2.5-1.4-0.1-2.5-1.5-2.3-3.1l2.8-9.4c0.9-2.9 2.2-2.7 2.8-2.6 1.3 0.3 1.1 1.6 0.9 3.3l-0.5 3.2-0.4 2.7zm1.7-21c-0.1-0.6-0.5-3.6 2.8-3.9 0 0 3.9-0.4 8.7-0.3 4.8 0.1 7.6 0.5 7.6 0.5 3.3 0.5 2.8 3.4 2.6 4-0.2-0.9-0.9-1.8-2.6-2.1 0 0-2.8-0.4-7.6-0.5-4.9-0.1-8.8 0.3-8.8 0.3-1.7 0.2-2.4 1.1-2.7 2z"/><g clip-path="url(#cp130)"><path fill-rule="evenodd" class="o" d="m711.9 419.5c0 0 3.9-0.4 8.7-0.3 4.8 0.1 7.6 0.6 7.6 0.6 3.7 0.5 2.6 4.1 2.6 4.1-0.1 0.4-0.7 3-0.9 3.4-0.4 1.3-1.2 2.1-2.3 2.5-0.8 0.3-1.6 0.6-2.5 0.6q-0.2 0-0.5 0l-9.4-0.2q-0.3 0-0.5 0c-0.9 0-1.7-0.3-2.5-0.6-1.1-0.5-1.9-1.3-2.3-2.6-0.2-0.5-0.7-3.1-0.7-3.4 0 0-1-3.7 2.7-4.1zm7.3 34.3c13.2 0.2 11.4-8.5 11.4-8.5l-1.1-8.7c-0.5-5-4.8-5-4.8-5l-9-0.2c-5.5 0.8-5.9 5.6-5.9 5.6-0.1 1.4-1.3 8.6-1.3 8.6-0.6 4.7 2.7 6.7 2.7 6.7 2.5 1.4 8 1.5 8 1.5z"/></g><g clip-path="url(#cp131)"><path fill-rule="evenodd" class="e" d="m711.9 419.5c0 0 3.9-0.4 8.7-0.3 4.8 0.1 7.6 0.6 7.6 0.6 3.7 0.5 2.6 4.1 2.6 4.1-0.1 0.4-0.7 3-0.9 3.4-0.4 1.3-1.2 2.1-2.3 2.5-0.8 0.3-1.6 0.6-2.5 0.6q-0.2 0-0.5 0l-9.4-0.2q-0.3 0-0.5 0c-0.9 0-1.7-0.3-2.5-0.6-1.1-0.5-1.9-1.3-2.3-2.6-0.2-0.5-0.7-3.1-0.7-3.4 0 0-1-3.7 2.7-4.1zm7.3 34.3c13.2 0.2 11.4-8.5 11.4-8.5l-1.1-8.7c-0.5-5-4.8-5-4.8-5l-9-0.2c-5.5 0.8-5.9 5.6-5.9 5.6-0.1 1.4-1.3 8.6-1.3 8.6-0.6 4.7 2.7 6.7 2.7 6.7 2.5 1.4 8 1.5 8 1.5z"/></g><path fill-rule="evenodd" class="p" d="m729.8 438.7h1.2l-0.4-3.1c-0.1-1.8-0.3-3.1 1.1-3.3 0.5-0.1 1.8-0.3 2.7 2.6l2.5 9.5c0.1 1.6-1 3-2.4 3.1-1.4 0.1-2.5-1.1-2.7-2.7l-0.4-3.2h-1.3zm-11.3-8.5l2.8 0.1v1.2l-2.8-0.1zm-9.3 11.1h-1.3l0.1-0.2 0.4-2.7h1.2zm-1.7 3.2c-0.3 1.5-1.4 2.7-2.8 2.5-1.4-0.1-2.5-1.5-2.3-3.1l2.8-9.4c0.9-2.9 2.2-2.7 2.8-2.6 1.3 0.3 1.1 1.6 0.9 3.3l-0.5 3.2-0.4 2.7zm1.7-21c-0.1-0.6-0.5-3.6 2.8-3.9 0 0 3.9-0.4 8.7-0.3 4.8 0.1 7.6 0.5 7.6 0.5 3.3 0.5 2.8 3.4 2.6 4-0.2-0.9-0.9-1.8-2.6-2.1 0 0-2.8-0.4-7.6-0.5-4.9-0.1-8.8 0.3-8.8 0.3-1.7 0.2-2.4 1.1-2.7 2z"/><path fill-rule="evenodd" class="e" d="m729.8 438.7h1.2l-0.4-3.1c-0.1-1.8-0.3-3.1 1.1-3.3 0.5-0.1 1.8-0.3 2.7 2.6l2.5 9.5c0.1 1.6-1 3-2.4 3.1-1.4 0.1-2.5-1.1-2.7-2.7l-0.4-3.2h-1.3zm-11.3-8.5l2.8 0.1v1.2l-2.8-0.1zm-9.3 11.1h-1.3l0.1-0.2 0.4-2.7h1.2zm-1.7 3.2c-0.3 1.5-1.4 2.7-2.8 2.5-1.4-0.1-2.5-1.5-2.3-3.1l2.8-9.4c0.9-2.9 2.2-2.7 2.8-2.6 1.3 0.3 1.1 1.6 0.9 3.3l-0.5 3.2-0.4 2.7zm1.7-21c-0.1-0.6-0.5-3.6 2.8-3.9 0 0 3.9-0.4 8.7-0.3 4.8 0.1 7.6 0.5 7.6 0.5 3.3 0.5 2.8 3.4 2.6 4-0.2-0.9-0.9-1.8-2.6-2.1 0 0-2.8-0.4-7.6-0.5-4.9-0.1-8.8 0.3-8.8 0.3-1.7 0.2-2.4 1.1-2.7 2z"/><g clip-path="url(#cp132)"><path fill-rule="evenodd" class="o" d="m688.2 425.1c0 0-3.9 0.4-8.8 0.3-4.8 0-7.6-0.5-7.6-0.5-3.7-0.5-2.5-4.1-2.5-4.1 0-0.4 0.6-3 0.8-3.5 0.4-1.2 1.2-2 2.4-2.5 0.7-0.3 1.6-0.5 2.4-0.5q0.3 0 0.5 0l9.5 0.2q0.2 0 0.5 0c0.8 0 1.7 0.2 2.4 0.6q1.7 0.7 2.3 2.5c0.2 0.5 0.7 3.1 0.8 3.5 0 0 1 3.7-2.7 4zm-7.4-34.2c-13.2-0.2-11.3 8.5-11.3 8.5l1 8.7c0.5 5 4.8 5 4.8 5l9 0.1c5.5-0.7 5.9-5.6 5.9-5.6 0.2-1.4 1.3-8.5 1.3-8.5 0.7-4.8-2.7-6.7-2.7-6.7-2.4-1.4-8-1.5-8-1.5z"/></g><g clip-path="url(#cp133)"><path fill-rule="evenodd" class="e" d="m688.2 425.1c0 0-3.9 0.4-8.8 0.3-4.8 0-7.6-0.5-7.6-0.5-3.7-0.5-2.5-4.1-2.5-4.1 0-0.4 0.6-3 0.8-3.5 0.4-1.2 1.2-2 2.4-2.5 0.7-0.3 1.6-0.5 2.4-0.5q0.3 0 0.5 0l9.5 0.2q0.2 0 0.5 0c0.8 0 1.7 0.2 2.4 0.6q1.7 0.7 2.3 2.5c0.2 0.5 0.7 3.1 0.8 3.5 0 0 1 3.7-2.7 4zm-7.4-34.2c-13.2-0.2-11.3 8.5-11.3 8.5l1 8.7c0.5 5 4.8 5 4.8 5l9 0.1c5.5-0.7 5.9-5.6 5.9-5.6 0.2-1.4 1.3-8.5 1.3-8.5 0.7-4.8-2.7-6.7-2.7-6.7-2.4-1.4-8-1.5-8-1.5z"/></g><path fill-rule="evenodd" class="p" d="m670.3 405.9h-1.3l-0.3-2.9h1.2zm11.3 8.5h-2.8v-1.2h2.9zm9.2-11h1.3l-0.5 2.9-1.2-0.1zm1.2 0.1l0.5-3.2c0.3-1.6 1.4-2.8 2.8-2.6 1.4 0.2 2.5 1.6 2.3 3.1l-2.8 9.5c-0.9 2.9-2.2 2.6-2.7 2.5-1.4-0.3-1.2-1.6-1-3.3l0.5-3.1 0.4-2.9zm-26.5-6.3c1.4-0.1 2.4 1.2 2.7 2.7l1.2 9.3c0.1 1.7 0.3 3-1.1 3.3-0.6 0.1-1.9 0.2-2.7-2.7l-2.5-9.5c-0.1-1.6 1-2.9 2.4-3.1zm25.3 24.1c0.1 0.6 0.6 3.6-2.7 3.9 0 0-3.9 0.4-8.7 0.3-4.9-0.1-7.6-0.5-7.6-0.5-3.3-0.5-2.8-3.4-2.7-4 0.3 0.9 0.9 1.8 2.7 2.1 0 0 2.7 0.4 7.6 0.5 4.8 0.1 8.7-0.3 8.7-0.3 1.8-0.2 2.5-1.1 2.7-2z"/><path fill-rule="evenodd" class="e" d="m670.3 405.9h-1.3l-0.3-2.9h1.2zm11.3 8.5h-2.8v-1.2h2.9zm9.2-11h1.3l-0.5 2.9-1.2-0.1zm1.2 0.1l0.5-3.2c0.3-1.6 1.4-2.8 2.8-2.6 1.4 0.2 2.5 1.6 2.3 3.1l-2.8 9.5c-0.9 2.9-2.2 2.6-2.7 2.5-1.4-0.3-1.2-1.6-1-3.3l0.5-3.1 0.4-2.9zm-26.5-6.3c1.4-0.1 2.4 1.2 2.7 2.7l1.2 9.3c0.1 1.7 0.3 3-1.1 3.3-0.6 0.1-1.9 0.2-2.7-2.7l-2.5-9.5c-0.1-1.6 1-2.9 2.4-3.1zm25.3 24.1c0.1 0.6 0.6 3.6-2.7 3.9 0 0-3.9 0.4-8.7 0.3-4.9-0.1-7.6-0.5-7.6-0.5-3.3-0.5-2.8-3.4-2.7-4 0.3 0.9 0.9 1.8 2.7 2.1 0 0 2.7 0.4 7.6 0.5 4.8 0.1 8.7-0.3 8.7-0.3 1.8-0.2 2.5-1.1 2.7-2z"/><g clip-path="url(#cp134)"><path fill-rule="evenodd" class="o" d="m688.2 425.1c0 0-3.9 0.4-8.8 0.3-4.8 0-7.6-0.5-7.6-0.5-3.7-0.5-2.5-4.1-2.5-4.1 0-0.4 0.6-3 0.8-3.5 0.4-1.2 1.2-2 2.4-2.5 0.7-0.3 1.6-0.5 2.4-0.5q0.3 0 0.5 0l9.5 0.2q0.2 0 0.5 0c0.8 0 1.7 0.2 2.4 0.6q1.7 0.7 2.3 2.5c0.2 0.5 0.7 3.1 0.8 3.5 0 0 1 3.7-2.7 4zm-7.4-34.2c-13.2-0.2-11.3 8.5-11.3 8.5l1 8.7c0.5 5 4.8 5 4.8 5l9 0.1c5.5-0.7 5.9-5.6 5.9-5.6 0.2-1.4 1.3-8.5 1.3-8.5 0.7-4.8-2.7-6.7-2.7-6.7-2.4-1.4-8-1.5-8-1.5z"/></g><g clip-path="url(#cp135)"><path fill-rule="evenodd" class="e" d="m688.2 425.1c0 0-3.9 0.4-8.8 0.3-4.8 0-7.6-0.5-7.6-0.5-3.7-0.5-2.5-4.1-2.5-4.1 0-0.4 0.6-3 0.8-3.5 0.4-1.2 1.2-2 2.4-2.5 0.7-0.3 1.6-0.5 2.4-0.5q0.3 0 0.5 0l9.5 0.2q0.2 0 0.5 0c0.8 0 1.7 0.2 2.4 0.6q1.7 0.7 2.3 2.5c0.2 0.5 0.7 3.1 0.8 3.5 0 0 1 3.7-2.7 4zm-7.4-34.2c-13.2-0.2-11.3 8.5-11.3 8.5l1 8.7c0.5 5 4.8 5 4.8 5l9 0.1c5.5-0.7 5.9-5.6 5.9-5.6 0.2-1.4 1.3-8.5 1.3-8.5 0.7-4.8-2.7-6.7-2.7-6.7-2.4-1.4-8-1.5-8-1.5z"/></g><path fill-rule="evenodd" class="p" d="m670.3 405.9h-1.3l-0.3-2.9h1.2zm11.3 8.5h-2.8v-1.2h2.9zm9.2-11h1.3l-0.5 2.9-1.2-0.1zm1.2 0.1l0.5-3.2c0.3-1.6 1.4-2.8 2.8-2.6 1.4 0.2 2.5 1.6 2.3 3.1l-2.8 9.5c-0.9 2.9-2.2 2.6-2.7 2.5-1.4-0.3-1.2-1.6-1-3.3l0.5-3.1 0.4-2.9zm-26.5-6.3c1.4-0.1 2.4 1.2 2.7 2.7l1.2 9.3c0.1 1.7 0.3 3-1.1 3.3-0.6 0.1-1.9 0.2-2.7-2.7l-2.5-9.5c-0.1-1.6 1-2.9 2.4-3.1zm25.3 24.1c0.1 0.6 0.6 3.6-2.7 3.9 0 0-3.9 0.4-8.7 0.3-4.9-0.1-7.6-0.5-7.6-0.5-3.3-0.5-2.8-3.4-2.7-4 0.3 0.9 0.9 1.8 2.7 2.1 0 0 2.7 0.4 7.6 0.5 4.8 0.1 8.7-0.3 8.7-0.3 1.8-0.2 2.5-1.1 2.7-2z"/><path fill-rule="evenodd" class="e" d="m670.3 405.9h-1.3l-0.3-2.9h1.2zm11.3 8.5h-2.8v-1.2h2.9zm9.2-11h1.3l-0.5 2.9-1.2-0.1zm1.2 0.1l0.5-3.2c0.3-1.6 1.4-2.8 2.8-2.6 1.4 0.2 2.5 1.6 2.3 3.1l-2.8 9.5c-0.9 2.9-2.2 2.6-2.7 2.5-1.4-0.3-1.2-1.6-1-3.3l0.5-3.1 0.4-2.9zm-26.5-6.3c1.4-0.1 2.4 1.2 2.7 2.7l1.2 9.3c0.1 1.7 0.3 3-1.1 3.3-0.6 0.1-1.9 0.2-2.7-2.7l-2.5-9.5c-0.1-1.6 1-2.9 2.4-3.1zm25.3 24.1c0.1 0.6 0.6 3.6-2.7 3.9 0 0-3.9 0.4-8.7 0.3-4.9-0.1-7.6-0.5-7.6-0.5-3.3-0.5-2.8-3.4-2.7-4 0.3 0.9 0.9 1.8 2.7 2.1 0 0 2.7 0.4 7.6 0.5 4.8 0.1 8.7-0.3 8.7-0.3 1.8-0.2 2.5-1.1 2.7-2z"/><g clip-path="url(#cp136)"><path fill-rule="evenodd" class="o" d="m672.5 419.5c0 0 3.9-0.4 8.7-0.3 4.8 0.1 7.6 0.6 7.6 0.6 3.7 0.5 2.6 4.1 2.6 4.1-0.1 0.4-0.7 3-0.9 3.4-0.4 1.3-1.2 2.1-2.3 2.5-0.8 0.3-1.7 0.6-2.5 0.6q-0.3 0-0.5 0l-9.5-0.2q-0.2 0-0.5 0c-0.8 0-1.6-0.3-2.4-0.6q-1.7-0.7-2.3-2.6c-0.2-0.5-0.7-3.1-0.7-3.4 0 0-1-3.7 2.7-4.1zm7.3 34.3c13.2 0.2 11.4-8.5 11.4-8.5l-1.1-8.7c-0.5-5-4.8-5-4.8-5l-9-0.2c-5.5 0.8-5.9 5.6-5.9 5.6-0.2 1.4-1.3 8.6-1.3 8.6-0.6 4.7 2.7 6.7 2.7 6.7 2.4 1.4 8 1.5 8 1.5z"/></g><g clip-path="url(#cp137)"><path fill-rule="evenodd" class="e" d="m672.5 419.5c0 0 3.9-0.4 8.7-0.3 4.8 0.1 7.6 0.6 7.6 0.6 3.7 0.5 2.6 4.1 2.6 4.1-0.1 0.4-0.7 3-0.9 3.4-0.4 1.3-1.2 2.1-2.3 2.5-0.8 0.3-1.7 0.6-2.5 0.6q-0.3 0-0.5 0l-9.5-0.2q-0.2 0-0.5 0c-0.8 0-1.6-0.3-2.4-0.6q-1.7-0.7-2.3-2.6c-0.2-0.5-0.7-3.1-0.7-3.4 0 0-1-3.7 2.7-4.1zm7.3 34.3c13.2 0.2 11.4-8.5 11.4-8.5l-1.1-8.7c-0.5-5-4.8-5-4.8-5l-9-0.2c-5.5 0.8-5.9 5.6-5.9 5.6-0.2 1.4-1.3 8.6-1.3 8.6-0.6 4.7 2.7 6.7 2.7 6.7 2.4 1.4 8 1.5 8 1.5z"/></g><path fill-rule="evenodd" class="p" d="m690.3 438.7h1.3l0.4 2.9h-1.3zm-11.3-8.5l2.9 0.1-0.1 1.2-2.8-0.1zm-9.3 11.1h-1.2l0.4-2.9h1.3zm-1.3 0l-0.5 3.2c-0.3 1.5-1.4 2.7-2.8 2.5-1.4-0.1-2.4-1.5-2.3-3.1l2.8-9.4c0.9-2.9 2.2-2.7 2.8-2.6 1.3 0.3 1.1 1.6 0.9 3.3l-0.4 3.2h-0.1l-0.4 2.9zm26.6 6.2c-1.4 0.1-2.5-1.1-2.8-2.6l-1.1-9.3c-0.1-1.8-0.3-3.1 1.1-3.3 0.5-0.1 1.8-0.3 2.7 2.7l2.4 9.5c0.1 1.5-0.9 2.9-2.3 3zm-25.4-24.1c-0.1-0.6-0.6-3.5 2.7-3.9 0 0 3.9-0.3 8.8-0.3 4.8 0.1 7.6 0.6 7.6 0.6 3.3 0.4 2.7 3.4 2.6 4-0.2-0.9-0.9-1.9-2.7-2.1 0 0-2.7-0.5-7.6-0.5-4.8-0.1-8.7 0.2-8.7 0.2-1.7 0.2-2.4 1.1-2.7 2z"/><path fill-rule="evenodd" class="e" d="m690.3 438.7h1.3l0.4 2.9h-1.3zm-11.3-8.5l2.9 0.1-0.1 1.2-2.8-0.1zm-9.3 11.1h-1.2l0.4-2.9h1.3zm-1.3 0l-0.5 3.2c-0.3 1.5-1.4 2.7-2.8 2.5-1.4-0.1-2.4-1.5-2.3-3.1l2.8-9.4c0.9-2.9 2.2-2.7 2.8-2.6 1.3 0.3 1.1 1.6 0.9 3.3l-0.4 3.2h-0.1l-0.4 2.9zm26.6 6.2c-1.4 0.1-2.5-1.1-2.8-2.6l-1.1-9.3c-0.1-1.8-0.3-3.1 1.1-3.3 0.5-0.1 1.8-0.3 2.7 2.7l2.4 9.5c0.1 1.5-0.9 2.9-2.3 3zm-25.4-24.1c-0.1-0.6-0.6-3.5 2.7-3.9 0 0 3.9-0.3 8.8-0.3 4.8 0.1 7.6 0.6 7.6 0.6 3.3 0.4 2.7 3.4 2.6 4-0.2-0.9-0.9-1.9-2.7-2.1 0 0-2.7-0.5-7.6-0.5-4.8-0.1-8.7 0.2-8.7 0.2-1.7 0.2-2.4 1.1-2.7 2z"/><g clip-path="url(#cp138)"><path fill-rule="evenodd" class="o" d="m672.5 419.5c0 0 3.9-0.4 8.7-0.3 4.8 0.1 7.6 0.6 7.6 0.6 3.7 0.5 2.6 4.1 2.6 4.1-0.1 0.4-0.7 3-0.9 3.4-0.4 1.3-1.2 2.1-2.3 2.5-0.8 0.3-1.7 0.6-2.5 0.6q-0.3 0-0.5 0l-9.5-0.2q-0.2 0-0.5 0c-0.8 0-1.6-0.3-2.4-0.6q-1.7-0.7-2.3-2.6c-0.2-0.5-0.7-3.1-0.7-3.4 0 0-1-3.7 2.7-4.1zm7.3 34.3c13.2 0.2 11.4-8.5 11.4-8.5l-1.1-8.7c-0.5-5-4.8-5-4.8-5l-9-0.2c-5.5 0.8-5.9 5.6-5.9 5.6-0.2 1.4-1.3 8.6-1.3 8.6-0.6 4.7 2.7 6.7 2.7 6.7 2.4 1.4 8 1.5 8 1.5z"/></g><g clip-path="url(#cp139)"><path fill-rule="evenodd" class="e" d="m672.5 419.5c0 0 3.9-0.4 8.7-0.3 4.8 0.1 7.6 0.6 7.6 0.6 3.7 0.5 2.6 4.1 2.6 4.1-0.1 0.4-0.7 3-0.9 3.4-0.4 1.3-1.2 2.1-2.3 2.5-0.8 0.3-1.7 0.6-2.5 0.6q-0.3 0-0.5 0l-9.5-0.2q-0.2 0-0.5 0c-0.8 0-1.6-0.3-2.4-0.6q-1.7-0.7-2.3-2.6c-0.2-0.5-0.7-3.1-0.7-3.4 0 0-1-3.7 2.7-4.1zm7.3 34.3c13.2 0.2 11.4-8.5 11.4-8.5l-1.1-8.7c-0.5-5-4.8-5-4.8-5l-9-0.2c-5.5 0.8-5.9 5.6-5.9 5.6-0.2 1.4-1.3 8.6-1.3 8.6-0.6 4.7 2.7 6.7 2.7 6.7 2.4 1.4 8 1.5 8 1.5z"/></g><path fill-rule="evenodd" class="p" d="m690.3 438.7h1.3l0.4 2.9h-1.3zm-11.3-8.5l2.9 0.1-0.1 1.2-2.8-0.1zm-9.3 11.1h-1.2l0.4-2.9h1.3zm-1.3 0l-0.5 3.2c-0.3 1.5-1.4 2.7-2.8 2.5-1.4-0.1-2.4-1.5-2.3-3.1l2.8-9.4c0.9-2.9 2.2-2.7 2.8-2.6 1.3 0.3 1.1 1.6 0.9 3.3l-0.4 3.2h-0.1l-0.4 2.9zm26.6 6.2c-1.4 0.1-2.5-1.1-2.8-2.6l-1.1-9.3c-0.1-1.8-0.3-3.1 1.1-3.3 0.5-0.1 1.8-0.3 2.7 2.7l2.4 9.5c0.1 1.5-0.9 2.9-2.3 3zm-25.4-24.1c-0.1-0.6-0.6-3.5 2.7-3.9 0 0 3.9-0.3 8.8-0.3 4.8 0.1 7.6 0.6 7.6 0.6 3.3 0.4 2.7 3.4 2.6 4-0.2-0.9-0.9-1.9-2.7-2.1 0 0-2.7-0.5-7.6-0.5-4.8-0.1-8.7 0.2-8.7 0.2-1.7 0.2-2.4 1.1-2.7 2z"/><path fill-rule="evenodd" class="e" d="m690.3 438.7h1.3l0.4 2.9h-1.3zm-11.3-8.5l2.9 0.1-0.1 1.2-2.8-0.1zm-9.3 11.1h-1.2l0.4-2.9h1.3zm-1.3 0l-0.5 3.2c-0.3 1.5-1.4 2.7-2.8 2.5-1.4-0.1-2.4-1.5-2.3-3.1l2.8-9.4c0.9-2.9 2.2-2.7 2.8-2.6 1.3 0.3 1.1 1.6 0.9 3.3l-0.4 3.2h-0.1l-0.4 2.9zm26.6 6.2c-1.4 0.1-2.5-1.1-2.8-2.6l-1.1-9.3c-0.1-1.8-0.3-3.1 1.1-3.3 0.5-0.1 1.8-0.3 2.7 2.7l2.4 9.5c0.1 1.5-0.9 2.9-2.3 3zm-25.4-24.1c-0.1-0.6-0.6-3.5 2.7-3.9 0 0 3.9-0.3 8.8-0.3 4.8 0.1 7.6 0.6 7.6 0.6 3.3 0.4 2.7 3.4 2.6 4-0.2-0.9-0.9-1.9-2.7-2.1 0 0-2.7-0.5-7.6-0.5-4.8-0.1-8.7 0.2-8.7 0.2-1.7 0.2-2.4 1.1-2.7 2z"/><path class="r" d="m39.7 78.8h269.5l-17 17.1h-235.5z"/><path class="b" d="m56.7 95.9h235.5m-252.5-17.1h269.5"/><path class="r" d="m309.2 78.8v165.2l-17-17v-131.1z"/><g clip-path="url(#cp140)"><path class="b" d="m292.2 95.9v131.1m17-148.2v165.2"/></g><path class="r" d="m309.2 244h-269.5l17-17h235.5z"/><path class="b" d="m292.2 227h-235.5m252.5 17h-269.5"/><path class="r" d="m39.7 244v-165.2l17 17.1v131.1z"/><g clip-path="url(#cp141)"><path class="b" d="m56.7 227v-131.1m-17 148.1v-165.2"/></g><path class="r" d="m588.5 481.5h100.1l-17 17h-66.1z"/><path class="s" d="m605.5 498.5h66.1m-83.1-17h100.1"/><g clip-path="url(#cp142)"><path class="a" d="m688.6 481.5v97.4l-17-17v-63.4z"/></g><g clip-path="url(#cp143)"><path class="b" d="m671.6 498.5v63.4m17-80.4v97.4"/></g><path class="r" d="m688.6 578.9h-100.1l17-17h66.1z"/><path class="s" d="m671.6 561.9h-66.1m83.1 17h-100.1"/><path class="r" d="m588.5 578.9v-97.4l17 17v63.4z"/><g clip-path="url(#cp144)"><path class="b" d="m605.5 561.9v-63.4m-17 80.4v-97.4"/></g><path class="r" d="m671.8 481.5h152l-17.1 17h-117.9z"/><path class="b" d="m688.8 498.5h117.9m-134.9-17h152"/><path class="r" d="m823.8 481.5v97.4l-17.1-17v-63.4z"/><g clip-path="url(#cp145)"><path class="b" d="m806.7 498.5v63.4m17-80.4v97.4"/></g><path class="r" d="m823.8 578.9h-152l17-17h117.9z"/><path class="b" d="m806.7 561.9h-117.9m134.9 17h-151.9"/><path class="r" d="m671.8 578.9v-97.4l17 17v63.4z"/><g clip-path="url(#cp146)"><path class="b" d="m688.8 561.9v-63.4m-17 80.4v-97.4"/></g><text style="transform:matrix(1,0,0,1,170.67,129.67)" ><tspan x="0" y="0" class="t" dx="0" >В</tspan><tspan  y="0" class="t">е</tspan><tspan  y="0" class="t" dx="0" >л</tspan><tspan  y="0" class="t" dx="0" >и</tspan><tspan  y="0" class="t" dx="0" >к</tspan><tspan  y="0" class="t" dx="0" >а</tspan><tspan  y="0" class="t" dx="0" > </tspan><tspan  y="0" class="t" dx="0" >п</tspan><tspan  y="0" class="t" dx="0" >е</tspan><tspan  y="0" class="t" dx="0" >р</tspan><tspan  y="0" class="t">е</tspan><tspan  y="0" class="t" dx="0" >г</tspan><tspan  y="0" class="t" dx="0" >о</tspan><tspan  y="0" class="t" dx="0" >в</tspan><tspan  y="0" class="t" dx="0" >о</tspan><tspan  y="0" class="t" dx="0" >р</tspan><tspan  y="0" class="t" dx="0" >к</tspan><tspan  y="0" class="t" dx="0" >а</tspan><tspan  y="0" class="t"> 
</tspan></text><text style="transform:matrix(1,0,0,1,592.48,529.65)" ><tspan x="0" y="0" class="t" dx="0" > </tspan><tspan  y="0" class="t" dx="0" > </tspan><tspan  y="0" class="t" dx="0" > </tspan><tspan  y="0" class="t" dx="0" > </tspan><tspan  y="0" class="t"> 
</tspan></text><text style="transform:matrix(1,0,0,1,606.05,529.65)" ><tspan x="0" y="0" class="t" dx="0" >П</tspan><tspan  y="0" class="t">е</tspan><tspan  y="0" class="t" dx="0" >р</tspan><tspan  y="0" class="t">е</tspan><tspan  y="0" class="t" dx="0" >г</tspan><tspan  y="0" class="t" dx="0" >о</tspan><tspan  y="0" class="t" dx="0" >в</tspan><tspan  y="0" class="t" dx="0" >о</tspan><tspan  y="0" class="t" dx="0" >р</tspan><tspan  y="0" class="t" dx="0" >к</tspan><tspan  y="0" class="t">а
</tspan></text><text style="transform:matrix(1,0,0,1,706.02,510.425)" ><tspan x="0" y="0" class="t" dx="0" > </tspan><tspan  y="0" class="t" dx="0" > </tspan><tspan  y="0" class="t" dx="0" > </tspan><tspan  y="0" class="t" dx="0" > </tspan><tspan  y="0" class="t" dx="0 0" >  </tspan><tspan  y="0" class="t" dx="0" > </tspan><tspan  y="0" class="t" dx="0 0" >  </tspan><tspan  y="0" class="t" dx="0" > </tspan><tspan  y="0" class="t" dx="0" > </tspan><tspan  y="0" class="t" dx="0" > </tspan><tspan  y="0" class="t" dx="0 0" >  </tspan><tspan  y="0" class="t" dx="0" > </tspan><tspan  y="0" class="t" dx="0" > </tspan><tspan  y="0" class="t" dx="0" > </tspan><tspan  y="0" class="t" dx="0 0" >  </tspan><tspan  y="0" class="t" dx="0" > </tspan><tspan  y="0" class="t" dx="0" > </tspan><tspan  y="0" class="t"> 
</tspan></text><text style="transform:matrix(1,0,0,1,641.83,524.85)" ><tspan x="0" y="0" class="t" dx="0" > </tspan><tspan  y="0" class="t" dx="0" > </tspan><tspan  y="0" class="t" dx="0" > </tspan><tspan  y="0" class="t" dx="0" > </tspan><tspan  y="0" class="t" dx="0 0" >  </tspan><tspan  y="0" class="t" dx="0" > </tspan><tspan  y="0" class="t" dx="0 0" >  </tspan><tspan  y="0" class="t" dx="0" > </tspan><tspan  y="0" class="t" dx="0" > </tspan><tspan  y="0" class="t" dx="0" > </tspan><tspan  y="0" class="t" dx="0 0" >  </tspan><tspan  y="0" class="t" dx="0" > </tspan><tspan  y="0" class="t" dx="0" > </tspan><tspan  y="0" class="t" dx="0" > </tspan><tspan  y="0" class="t" dx="0 0" >  </tspan><tspan  y="0" class="t" dx="0" > </tspan><tspan  y="0" class="t" dx="0 0" >  </tspan><tspan  y="0" class="t"> 
</tspan></text><text style="transform:matrix(1,0,0,1,704.28,524.85)" ><tspan x="0" y="0" class="t" dx="0" >П</tspan><tspan  y="0" class="t">е</tspan><tspan  y="0" class="t" dx="0" >р</tspan><tspan  y="0" class="t">е</tspan><tspan  y="0" class="t" dx="0" >г</tspan><tspan  y="0" class="t" dx="0" >о</tspan><tspan  y="0" class="t" dx="0" >в</tspan><tspan  y="0" class="t" dx="0" >о</tspan><tspan  y="0" class="t" dx="0" >р</tspan><tspan  y="0" class="t" dx="0" >к</tspan><tspan  y="0" class="t">а
</tspan></text><g clip-path="url(#cp147)"></g><g clip-path="url(#cp148)"></g><g clip-path="url(#cp149)"></g><g clip-path="url(#cp150)"></g><g clip-path="url(#cp151)"></g><g clip-path="url(#cp152)"></g><g clip-path="url(#cp153)"></g><g clip-path="url(#cp154)"></g><g clip-path="url(#cp155)"></g><g clip-path="url(#cp156)"></g><g clip-path="url(#cp157)"></g><g clip-path="url(#cp158)"></g><g clip-path="url(#cp159)"></g><g clip-path="url(#cp160)"></g><g clip-path="url(#cp161)"></g><g clip-path="url(#cp162)"></g><g clip-path="url(#cp163)"></g><g clip-path="url(#cp164)"></g><g clip-path="url(#cp165)"></g><g clip-path="url(#cp166)"></g><g clip-path="url(#cp167)"></g><g clip-path="url(#cp168)"></g><g clip-path="url(#cp169)"><path fill-rule="evenodd" class="o" d="m727.6 425.1c0 0-3.9 0.4-8.8 0.3-4.8 0-7.6-0.5-7.6-0.5-3.7-0.5-2.5-4.1-2.5-4.1 0-0.4 0.6-3 0.8-3.5 0.4-1.2 1.3-2 2.4-2.5 0.8-0.3 1.6-0.5 2.4-0.5q0.3 0 0.5 0l9.5 0.2q0.2 0 0.5 0c0.8 0 1.7 0.2 2.4 0.6 1.1 0.5 1.9 1.3 2.3 2.5 0.2 0.5 0.7 3.1 0.8 3.5 0 0 1 3.7-2.7 4zm-7.4-34.2c-13.2-0.2-11.4 8.5-11.4 8.5l1.2 8.7c0.4 5 4.7 5 4.7 5l9 0.1c5.5-0.7 5.9-5.6 5.9-5.6 0.2-1.4 1.4-8.5 1.4-8.5 0.5-4.8-2.8-6.7-2.8-6.7-2.4-1.4-8-1.5-8-1.5z"/></g><g clip-path="url(#cp170)"><path fill-rule="evenodd" class="e" d="m727.6 425.1c0 0-3.9 0.4-8.8 0.3-4.8 0-7.6-0.5-7.6-0.5-3.7-0.5-2.5-4.1-2.5-4.1 0-0.4 0.6-3 0.8-3.5 0.4-1.2 1.3-2 2.4-2.5 0.8-0.3 1.6-0.5 2.4-0.5q0.3 0 0.5 0l9.5 0.2q0.2 0 0.5 0c0.8 0 1.7 0.2 2.4 0.6 1.1 0.5 1.9 1.3 2.3 2.5 0.2 0.5 0.7 3.1 0.8 3.5 0 0 1 3.7-2.7 4zm-7.4-34.2c-13.2-0.2-11.4 8.5-11.4 8.5l1.2 8.7c0.4 5 4.7 5 4.7 5l9 0.1c5.5-0.7 5.9-5.6 5.9-5.6 0.2-1.4 1.4-8.5 1.4-8.5 0.5-4.8-2.8-6.7-2.8-6.7-2.4-1.4-8-1.5-8-1.5z"/></g><path fill-rule="evenodd" class="p" d="m709.7 405.9h-1.3l0.4 3.2c0.2 1.7 0.4 3-1 3.3-0.6 0.1-1.9 0.3-2.8-2.7l-2.4-9.5c-0.1-1.6 0.9-2.9 2.4-3 1.4-0.1 2.4 1.1 2.7 2.6l0.4 3.2h1.2zm11.3 8.5h-2.8v-1.2h2.9zm9.2-11h1.3l-0.5 2.9-1.2-0.1zm6.8-2.6l-2.8 9.5c-0.9 2.9-2.2 2.6-2.7 2.5-1.4-0.3-1.2-1.6-1-3.3l1.4-9.2c0.4-1.6 1.4-2.8 2.8-2.6 1.4 0.2 2.5 1.6 2.3 3.1zm-6.8 20.5c0.1 0.6 0.6 3.6-2.7 3.9 0 0-3.9 0.4-8.8 0.3-4.8-0.1-7.6-0.5-7.6-0.5-3.3-0.5-2.7-3.4-2.6-4 0.3 0.9 0.9 1.8 2.7 2.1 0 0 2.7 0.4 7.6 0.5 4.8 0.1 8.7-0.3 8.7-0.3 1.8-0.2 2.5-1.1 2.7-2z"/><path fill-rule="evenodd" class="e" d="m709.7 405.9h-1.3l0.4 3.2c0.2 1.7 0.4 3-1 3.3-0.6 0.1-1.9 0.3-2.8-2.7l-2.4-9.5c-0.1-1.6 0.9-2.9 2.4-3 1.4-0.1 2.4 1.1 2.7 2.6l0.4 3.2h1.2zm11.3 8.5h-2.8v-1.2h2.9zm9.2-11h1.3l-0.5 2.9-1.2-0.1zm6.8-2.6l-2.8 9.5c-0.9 2.9-2.2 2.6-2.7 2.5-1.4-0.3-1.2-1.6-1-3.3l1.4-9.2c0.4-1.6 1.4-2.8 2.8-2.6 1.4 0.2 2.5 1.6 2.3 3.1zm-6.8 20.5c0.1 0.6 0.6 3.6-2.7 3.9 0 0-3.9 0.4-8.8 0.3-4.8-0.1-7.6-0.5-7.6-0.5-3.3-0.5-2.7-3.4-2.6-4 0.3 0.9 0.9 1.8 2.7 2.1 0 0 2.7 0.4 7.6 0.5 4.8 0.1 8.7-0.3 8.7-0.3 1.8-0.2 2.5-1.1 2.7-2z"/><g clip-path="url(#cp171)"><path fill-rule="evenodd" class="o" d="m727.6 425.1c0 0-3.9 0.4-8.8 0.3-4.8 0-7.6-0.5-7.6-0.5-3.7-0.5-2.5-4.1-2.5-4.1 0-0.4 0.6-3 0.8-3.5 0.4-1.2 1.3-2 2.4-2.5 0.8-0.3 1.6-0.5 2.4-0.5q0.3 0 0.5 0l9.5 0.2q0.2 0 0.5 0c0.8 0 1.7 0.2 2.4 0.6 1.1 0.5 1.9 1.3 2.3 2.5 0.2 0.5 0.7 3.1 0.8 3.5 0 0 1 3.7-2.7 4zm-7.4-34.2c-13.2-0.2-11.4 8.5-11.4 8.5l1.2 8.7c0.4 5 4.7 5 4.7 5l9 0.1c5.5-0.7 5.9-5.6 5.9-5.6 0.2-1.4 1.4-8.5 1.4-8.5 0.5-4.8-2.8-6.7-2.8-6.7-2.4-1.4-8-1.5-8-1.5z"/></g><g clip-path="url(#cp172)"><path fill-rule="evenodd" class="e" d="m727.6 425.1c0 0-3.9 0.4-8.8 0.3-4.8 0-7.6-0.5-7.6-0.5-3.7-0.5-2.5-4.1-2.5-4.1 0-0.4 0.6-3 0.8-3.5 0.4-1.2 1.3-2 2.4-2.5 0.8-0.3 1.6-0.5 2.4-0.5q0.3 0 0.5 0l9.5 0.2q0.2 0 0.5 0c0.8 0 1.7 0.2 2.4 0.6 1.1 0.5 1.9 1.3 2.3 2.5 0.2 0.5 0.7 3.1 0.8 3.5 0 0 1 3.7-2.7 4zm-7.4-34.2c-13.2-0.2-11.4 8.5-11.4 8.5l1.2 8.7c0.4 5 4.7 5 4.7 5l9 0.1c5.5-0.7 5.9-5.6 5.9-5.6 0.2-1.4 1.4-8.5 1.4-8.5 0.5-4.8-2.8-6.7-2.8-6.7-2.4-1.4-8-1.5-8-1.5z"/></g><path fill-rule="evenodd" class="p" d="m709.7 405.9h-1.3l0.4 3.2c0.2 1.7 0.4 3-1 3.3-0.6 0.1-1.9 0.3-2.8-2.7l-2.4-9.5c-0.1-1.6 0.9-2.9 2.4-3 1.4-0.1 2.4 1.1 2.7 2.6l0.4 3.2h1.2zm11.3 8.5h-2.8v-1.2h2.9zm9.2-11h1.3l-0.5 2.9-1.2-0.1zm6.8-2.6l-2.8 9.5c-0.9 2.9-2.2 2.6-2.7 2.5-1.4-0.3-1.2-1.6-1-3.3l1.4-9.2c0.4-1.6 1.4-2.8 2.8-2.6 1.4 0.2 2.5 1.6 2.3 3.1zm-6.8 20.5c0.1 0.6 0.6 3.6-2.7 3.9 0 0-3.9 0.4-8.8 0.3-4.8-0.1-7.6-0.5-7.6-0.5-3.3-0.5-2.7-3.4-2.6-4 0.3 0.9 0.9 1.8 2.7 2.1 0 0 2.7 0.4 7.6 0.5 4.8 0.1 8.7-0.3 8.7-0.3 1.8-0.2 2.5-1.1 2.7-2z"/><path fill-rule="evenodd" class="e" d="m709.7 405.9h-1.3l0.4 3.2c0.2 1.7 0.4 3-1 3.3-0.6 0.1-1.9 0.3-2.8-2.7l-2.4-9.5c-0.1-1.6 0.9-2.9 2.4-3 1.4-0.1 2.4 1.1 2.7 2.6l0.4 3.2h1.2zm11.3 8.5h-2.8v-1.2h2.9zm9.2-11h1.3l-0.5 2.9-1.2-0.1zm6.8-2.6l-2.8 9.5c-0.9 2.9-2.2 2.6-2.7 2.5-1.4-0.3-1.2-1.6-1-3.3l1.4-9.2c0.4-1.6 1.4-2.8 2.8-2.6 1.4 0.2 2.5 1.6 2.3 3.1zm-6.8 20.5c0.1 0.6 0.6 3.6-2.7 3.9 0 0-3.9 0.4-8.8 0.3-4.8-0.1-7.6-0.5-7.6-0.5-3.3-0.5-2.7-3.4-2.6-4 0.3 0.9 0.9 1.8 2.7 2.1 0 0 2.7 0.4 7.6 0.5 4.8 0.1 8.7-0.3 8.7-0.3 1.8-0.2 2.5-1.1 2.7-2z"/><path class="m" d="m387.5 504.9c0-0.4 0.4-0.8 0.8-0.8h39.3c0.5 0 0.8 0.4 0.8 0.8v71.9c0 0.5-0.3 0.8-0.8 0.8h-39.3c-0.4 0-0.8-0.3-0.8-0.8z"/><path class="b" d="m387.5 504.9c0-0.4 0.4-0.8 0.8-0.8h39.3c0.5 0 0.8 0.4 0.8 0.8v71.9c0 0.5-0.3 0.8-0.8 0.8h-39.3c-0.4 0-0.8-0.3-0.8-0.8z"/><path class="n" d="m409.8 532.4c-3.4 0-6.2-2.7-6.2-6.1 0-3.4 2.8-6.1 6.1-6.1 3.4 0 6.2 2.7 6.2 6.1 0 3.4-2.8 6.1-6.2 6.1z"/><path  d="m409.8 530.6c-2.4 0-4.3-1.9-4.3-4.3 0-2.3 1.9-4.2 4.2-4.2 2.4 0 4.3 1.9 4.3 4.2 0 2.4-1.9 4.3-4.3 4.3z"/><g clip-path="url(#cp173)"><path fill-rule="evenodd" class="o" d="m453.2 521.8c0 0 0.4 4.1 0.3 9.4 0 5.2-0.5 8.2-0.5 8.2-0.6 3.9-4.5 2.7-4.5 2.7-0.4 0-3.2-0.7-3.7-0.9-1.3-0.5-2.2-1.3-2.7-2.5-0.3-0.9-0.6-1.8-0.6-2.7q0-0.3 0-0.5l0.2-10.2q0-0.3 0-0.5c0-1 0.3-1.9 0.7-2.7 0.5-1.2 1.4-2 2.7-2.5 0.5-0.1 3.4-0.7 3.8-0.7 0 0 3.9-1.1 4.3 2.9zm-36.9 7.9c-0.2 14.2 9.2 12.2 9.2 12.2l9.4-1.2c5.3-0.5 5.4-5.1 5.4-5.1l0.1-9.7c-0.8-5.9-6-6.3-6-6.3-1.5-0.2-9.3-1.5-9.3-1.5-5.1-0.6-7.1 2.9-7.1 2.9-1.6 2.7-1.7 8.7-1.7 8.7z"/></g><g clip-path="url(#cp174)"><path fill-rule="evenodd" class="e" d="m453.2 521.8c0 0 0.4 4.1 0.3 9.4 0 5.2-0.5 8.2-0.5 8.2-0.6 3.9-4.5 2.7-4.5 2.7-0.4 0-3.2-0.7-3.7-0.9-1.3-0.5-2.2-1.3-2.7-2.5-0.3-0.9-0.6-1.8-0.6-2.7q0-0.3 0-0.5l0.2-10.2q0-0.3 0-0.5c0-1 0.3-1.9 0.7-2.7 0.5-1.2 1.4-2 2.7-2.5 0.5-0.1 3.4-0.7 3.8-0.7 0 0 3.9-1.1 4.3 2.9zm-36.9 7.9c-0.2 14.2 9.2 12.2 9.2 12.2l9.4-1.2c5.3-0.5 5.4-5.1 5.4-5.1l0.1-9.7c-0.8-5.9-6-6.3-6-6.3-1.5-0.2-9.3-1.5-9.3-1.5-5.1-0.6-7.1 2.9-7.1 2.9-1.6 2.7-1.7 8.7-1.7 8.7z"/></g><g clip-path="url(#cp175)"><path fill-rule="evenodd" class="p" d="m432.5 541v1.4l-1.4 0.1 4.8-0.6c1.9-0.1 3.3-0.3 3.6 1.2 0.1 0.6 0.3 2-2.9 2.9l-10.2 2.7c-1.7 0.1-3.2-1.1-3.3-2.6-0.1-1.5 1.2-2.6 2.8-2.9l3.5-0.4v-1.4zm9.1-12.2v3.1h-1.3v-3.1zm-11.9-10l0.1-1.3 2.9 0.4 0.2 0.1-0.1 1.3zm3-0.9l-6.4-1c-1.6-0.3-2.9-1.5-2.7-3 0.1-1.5 1.6-2.6 3.3-2.5l10.2 3c3.1 1 2.9 2.4 2.8 3-0.4 1.5-1.8 1.2-3.6 1.1l-3.4-0.6zm16.3 0.9c0.7-0.1 3.9-0.6 4.2 2.9 0 0 0.4 4.2 0.3 9.4 0 5.3-0.5 8.2-0.5 8.2-0.5 3.6-3.7 3-4.3 2.8 0.9-0.2 1.9-0.9 2.2-2.8 0 0 0.5-3 0.6-8.2 0.1-5.2-0.3-9.4-0.3-9.4-0.2-1.9-1.2-2.6-2.2-2.9z"/></g><g clip-path="url(#cp176)"><path fill-rule="evenodd" class="e" d="m432.5 541v1.4l-1.4 0.1 4.8-0.6c1.9-0.1 3.3-0.3 3.6 1.2 0.1 0.6 0.3 2-2.9 2.9l-10.2 2.7c-1.7 0.1-3.2-1.1-3.3-2.6-0.1-1.5 1.2-2.6 2.8-2.9l3.5-0.4v-1.4zm9.1-12.2v3.1h-1.3v-3.1zm-11.9-10l0.1-1.3 2.9 0.4 0.2 0.1-0.1 1.3zm3-0.9l-6.4-1c-1.6-0.3-2.9-1.5-2.7-3 0.1-1.5 1.6-2.6 3.3-2.5l10.2 3c3.1 1 2.9 2.4 2.8 3-0.4 1.5-1.8 1.2-3.6 1.1l-3.4-0.6zm16.3 0.9c0.7-0.1 3.9-0.6 4.2 2.9 0 0 0.4 4.2 0.3 9.4 0 5.3-0.5 8.2-0.5 8.2-0.5 3.6-3.7 3-4.3 2.8 0.9-0.2 1.9-0.9 2.2-2.8 0 0 0.5-3 0.6-8.2 0.1-5.2-0.3-9.4-0.3-9.4-0.2-1.9-1.2-2.6-2.2-2.9z"/></g><g clip-path="url(#cp177)"><path fill-rule="evenodd" class="o" d="m453.2 521.8c0 0 0.4 4.1 0.3 9.4 0 5.2-0.5 8.2-0.5 8.2-0.6 3.9-4.5 2.7-4.5 2.7-0.4 0-3.2-0.7-3.7-0.9-1.3-0.5-2.2-1.3-2.7-2.5-0.3-0.9-0.6-1.8-0.6-2.7q0-0.3 0-0.5l0.2-10.2q0-0.3 0-0.5c0-1 0.3-1.9 0.7-2.7 0.5-1.2 1.4-2 2.7-2.5 0.5-0.1 3.4-0.7 3.8-0.7 0 0 3.9-1.1 4.3 2.9zm-36.9 7.9c-0.2 14.2 9.2 12.2 9.2 12.2l9.4-1.2c5.3-0.5 5.4-5.1 5.4-5.1l0.1-9.7c-0.8-5.9-6-6.3-6-6.3-1.5-0.2-9.3-1.5-9.3-1.5-5.1-0.6-7.1 2.9-7.1 2.9-1.6 2.7-1.7 8.7-1.7 8.7z"/></g><g clip-path="url(#cp178)"><path fill-rule="evenodd" class="e" d="m453.2 521.8c0 0 0.4 4.1 0.3 9.4 0 5.2-0.5 8.2-0.5 8.2-0.6 3.9-4.5 2.7-4.5 2.7-0.4 0-3.2-0.7-3.7-0.9-1.3-0.5-2.2-1.3-2.7-2.5-0.3-0.9-0.6-1.8-0.6-2.7q0-0.3 0-0.5l0.2-10.2q0-0.3 0-0.5c0-1 0.3-1.9 0.7-2.7 0.5-1.2 1.4-2 2.7-2.5 0.5-0.1 3.4-0.7 3.8-0.7 0 0 3.9-1.1 4.3 2.9zm-36.9 7.9c-0.2 14.2 9.2 12.2 9.2 12.2l9.4-1.2c5.3-0.5 5.4-5.1 5.4-5.1l0.1-9.7c-0.8-5.9-6-6.3-6-6.3-1.5-0.2-9.3-1.5-9.3-1.5-5.1-0.6-7.1 2.9-7.1 2.9-1.6 2.7-1.7 8.7-1.7 8.7z"/></g><g clip-path="url(#cp179)"><path fill-rule="evenodd" class="p" d="m432.5 541v1.4l-1.4 0.1 4.8-0.6c1.9-0.1 3.3-0.3 3.6 1.2 0.1 0.6 0.3 2-2.9 2.9l-10.2 2.7c-1.7 0.1-3.2-1.1-3.3-2.6-0.1-1.5 1.2-2.6 2.8-2.9l3.5-0.4v-1.4zm9.1-12.2v3.1h-1.3v-3.1zm-11.9-10l0.1-1.3 2.9 0.4 0.2 0.1-0.1 1.3zm3-0.9l-6.4-1c-1.6-0.3-2.9-1.5-2.7-3 0.1-1.5 1.6-2.6 3.3-2.5l10.2 3c3.1 1 2.9 2.4 2.8 3-0.4 1.5-1.8 1.2-3.6 1.1l-3.4-0.6zm16.3 0.9c0.7-0.1 3.9-0.6 4.2 2.9 0 0 0.4 4.2 0.3 9.4 0 5.3-0.5 8.2-0.5 8.2-0.5 3.6-3.7 3-4.3 2.8 0.9-0.2 1.9-0.9 2.2-2.8 0 0 0.5-3 0.6-8.2 0.1-5.2-0.3-9.4-0.3-9.4-0.2-1.9-1.2-2.6-2.2-2.9z"/></g><g clip-path="url(#cp180)"><path fill-rule="evenodd" class="e" d="m432.5 541v1.4l-1.4 0.1 4.8-0.6c1.9-0.1 3.3-0.3 3.6 1.2 0.1 0.6 0.3 2-2.9 2.9l-10.2 2.7c-1.7 0.1-3.2-1.1-3.3-2.6-0.1-1.5 1.2-2.6 2.8-2.9l3.5-0.4v-1.4zm9.1-12.2v3.1h-1.3v-3.1zm-11.9-10l0.1-1.3 2.9 0.4 0.2 0.1-0.1 1.3zm3-0.9l-6.4-1c-1.6-0.3-2.9-1.5-2.7-3 0.1-1.5 1.6-2.6 3.3-2.5l10.2 3c3.1 1 2.9 2.4 2.8 3-0.4 1.5-1.8 1.2-3.6 1.1l-3.4-0.6zm16.3 0.9c0.7-0.1 3.9-0.6 4.2 2.9 0 0 0.4 4.2 0.3 9.4 0 5.3-0.5 8.2-0.5 8.2-0.5 3.6-3.7 3-4.3 2.8 0.9-0.2 1.9-0.9 2.2-2.8 0 0 0.5-3 0.6-8.2 0.1-5.2-0.3-9.4-0.3-9.4-0.2-1.9-1.2-2.6-2.2-2.9z"/></g><g clip-path="url(#cp181)"></g><g clip-path="url(#cp182)"></g><g clip-path="url(#cp183)"></g><g clip-path="url(#cp184)"></g><g clip-path="url(#cp185)"></g><g clip-path="url(#cp186)"></g></svg>